<?xml version="1.0" standalone="no"?>
<!DOCTYPE svg PUBLIC "-//W3C//DTD SVG 20010904//EN"
 "http://www.w3.org/TR/2001/REC-SVG-20010904/DTD/svg10.dtd">
<svg version="1.0" xmlns="http://www.w3.org/2000/svg"
 width="1425.600000pt" height="864.000000pt" viewBox="0 0 1425.600000 864.000000"
 preserveAspectRatio="xMidYMid meet">
<metadata>
Created by potrace 1.13, written by Peter Selinger 2001-2015
</metadata>
<g transform="translate(0.000000,864.000000) scale(0.080000,-0.080000)"
fill="#000000" stroke="none">
<path d="M4545 10350 c-27 -5 -24 -7 30 -20 54 -12 129 -46 163 -73 6 -5 12
-25 12 -44 0 -32 -2 -35 -22 -29 -13 3 -77 10 -143 17 -66 6 -128 15 -138 20
-16 9 -378 5 -467 -5 -115 -12 -160 -20 -160 -25 0 -4 16 -5 36 -3 23 3 39 0
44 -9 7 -10 18 -10 52 -3 58 13 502 9 593 -5 39 -6 86 -13 105 -15 19 -2 53
-6 75 -9 22 -3 82 -11 133 -18 51 -7 95 -16 98 -20 3 -5 18 -9 33 -9 15 0 31
-3 35 -7 4 -4 19 -9 34 -10 15 -2 77 -19 137 -38 61 -19 124 -37 140 -41 26
-5 90 -27 160 -55 11 -4 35 -10 52 -13 18 -3 52 -14 75 -25 24 -10 61 -24 83
-31 81 -26 101 -33 140 -49 64 -28 264 -88 345 -106 101 -21 213 -34 340 -41
58 -2 152 -9 210 -14 173 -16 640 -7 765 15 48 8 158 17 189 16 15 -1 34 3 41
9 21 17 264 14 377 -5 22 -4 52 -8 67 -10 92 -9 282 -36 311 -45 19 -6 88 -22
153 -35 64 -14 126 -29 137 -35 26 -14 27 -13 22 19 -6 42 -42 55 -232 87 -52
8 -97 17 -101 20 -22 13 -130 27 -314 39 -38 2 -114 9 -168 15 -107 11 -237 4
-249 -14 -6 -8 -11 -7 -17 2 -9 14 -15 14 -401 -18 -104 -8 -610 -5 -650 4
-14 3 -110 8 -215 10 -182 5 -298 18 -320 36 -6 5 -30 12 -53 16 -23 4 -45 11
-48 15 -3 5 -15 9 -28 9 -12 0 -26 4 -31 9 -6 5 -38 18 -73 30 -34 12 -70 25
-80 30 -45 23 -157 60 -372 121 -41 12 -86 28 -100 35 -14 7 -43 16 -65 20
-22 4 -74 17 -115 30 -67 20 -116 32 -320 79 -53 13 -55 14 -63 53 -10 51 -57
100 -105 109 -21 4 -41 10 -47 14 -11 9 -47 9 -90 0z"/>
<path d="M4460 10301 c-13 -26 -13 -71 1 -71 5 0 8 4 5 9 -4 5 -2 11 4 13 14
5 25 68 12 68 -6 0 -16 -9 -22 -19z"/>
<path d="M3495 10085 c-49 -24 -96 -49 -103 -55 -7 -6 -27 -16 -45 -22 -17 -6
-43 -19 -57 -29 -14 -9 -51 -29 -81 -44 -31 -14 -66 -35 -77 -46 -12 -10 -28
-19 -36 -19 -8 0 -21 -8 -28 -18 -7 -9 -25 -25 -39 -34 -14 -9 -41 -33 -60
-52 -18 -20 -39 -36 -45 -36 -6 0 -20 -12 -29 -27 -10 -16 -31 -41 -47 -58
-44 -44 -108 -132 -108 -148 0 -7 -11 -24 -25 -37 -14 -13 -25 -29 -25 -37 0
-15 -16 -18 -24 -4 -6 9 -76 23 -113 22 -33 -1 -79 -33 -108 -75 -27 -39 -31
-61 -15 -71 19 -11 10 -34 -17 -47 -16 -7 -28 -20 -29 -28 0 -8 -3 -24 -7 -35
-3 -11 -8 -33 -11 -50 -21 -123 -30 -154 -49 -159 -10 -2 -16 -9 -13 -15 4 -5
1 -13 -7 -18 -7 -4 -18 -20 -25 -36 -6 -15 -23 -32 -36 -37 -14 -5 -32 -21
-42 -35 -9 -14 -22 -25 -30 -25 -7 0 -20 -13 -29 -30 -12 -24 -22 -30 -48 -30
-40 -1 -83 -31 -74 -54 4 -9 2 -16 -2 -16 -19 0 -31 -217 -17 -297 8 -42 47
-93 72 -93 7 0 15 -9 19 -19 5 -18 101 -81 204 -136 72 -38 88 -73 62 -138 -6
-16 -11 -64 -11 -107 0 -43 -4 -82 -10 -85 -5 -3 -10 -30 -10 -58 -1 -29 -5
-72 -11 -97 -5 -25 -12 -67 -14 -95 -3 -27 -10 -93 -15 -145 -6 -52 -13 -122
-16 -154 -3 -33 -13 -76 -23 -96 -29 -59 -125 -225 -133 -228 -5 -2 -8 -10 -8
-18 0 -8 -5 -14 -11 -14 -6 0 -9 -6 -6 -14 3 -8 2 -16 -2 -18 -11 -4 -71 -95
-71 -107 0 -5 -6 -16 -13 -23 -26 -27 -97 -139 -97 -153 0 -3 4 -5 9 -5 11 0
101 132 101 148 0 6 3 12 8 14 13 6 62 76 62 89 0 7 8 22 19 33 10 12 29 41
42 66 13 25 33 59 44 75 12 17 30 47 40 67 11 21 20 36 22 34 1 -1 8 -38 14
-82 6 -43 14 -83 19 -88 5 -5 6 -14 4 -21 -6 -14 53 -204 97 -315 16 -41 29
-81 29 -88 0 -8 16 -61 36 -119 37 -109 40 -158 9 -183 -8 -6 -24 -37 -35 -68
-12 -30 -30 -68 -40 -83 -11 -15 -20 -31 -20 -36 0 -4 -18 -46 -41 -93 -60
-122 -84 -175 -120 -260 -17 -41 -35 -79 -38 -85 -4 -5 -14 -30 -21 -55 -8
-25 -22 -56 -32 -69 -10 -13 -18 -28 -18 -34 0 -13 -111 -240 -120 -247 -4 -3
-10 -18 -14 -35 -15 -58 -82 -198 -119 -247 -15 -19 -27 -39 -27 -45 0 -5 -13
-22 -30 -38 -16 -16 -30 -35 -30 -43 0 -26 -52 -102 -69 -102 -27 0 -56 -36
-43 -53 6 -7 9 -23 5 -35 -5 -22 10 -31 22 -12 3 5 12 7 20 4 26 -10 55 30
125 174 12 24 30 52 41 63 10 10 19 26 19 34 0 7 6 18 14 22 8 4 15 17 17 27
7 32 35 43 66 26 30 -17 31 -19 63 -155 12 -49 26 -108 31 -130 6 -22 17 -78
25 -125 8 -47 23 -112 34 -146 10 -33 24 -91 30 -129 6 -38 15 -72 19 -75 4
-3 18 -54 30 -115 13 -60 27 -126 31 -145 18 -81 50 -239 59 -295 5 -33 16
-89 24 -125 28 -123 37 -173 37 -209 0 -20 7 -56 16 -81 8 -24 20 -65 25 -90
22 -100 36 -156 41 -170 3 -8 11 -31 18 -50 7 -19 18 -53 24 -75 7 -22 16 -47
20 -56 4 -9 6 -20 5 -25 -6 -19 13 -124 21 -124 5 0 7 -13 5 -30 -2 -16 0 -56
5 -87 5 -32 14 -89 20 -128 5 -38 15 -80 22 -92 14 -28 -4 -96 -32 -120 -10
-8 -32 -28 -50 -44 -17 -16 -46 -36 -64 -44 -54 -26 -108 -79 -100 -98 9 -24
26 -21 64 13 20 18 45 30 62 30 15 0 28 5 28 10 0 6 7 10 15 10 8 0 15 7 15
15 0 8 22 36 49 62 26 26 53 57 59 69 17 32 -4 203 -39 311 -16 50 -29 104
-29 120 -1 15 -7 54 -15 86 -7 33 -11 65 -8 72 2 8 -2 27 -10 42 -18 32 -55
129 -62 158 -2 11 -13 58 -24 105 -11 47 -31 146 -46 220 -14 74 -28 144 -30
155 -3 11 -12 63 -20 115 -8 52 -17 101 -20 109 -8 20 -33 148 -40 206 -4 28
-16 84 -27 125 -11 41 -26 102 -32 135 -13 60 -34 131 -44 150 -3 5 -7 18 -8
30 -5 36 -33 189 -38 210 -35 134 -58 267 -57 336 0 48 -3 58 -22 68 -12 6
-30 25 -39 41 -10 18 -25 30 -38 30 -21 0 -26 16 -11 39 6 9 11 10 15 2 4 -6
11 -9 16 -6 4 3 13 -2 20 -10 8 -10 31 -15 70 -15 31 0 70 -4 86 -10 16 -5 45
-12 64 -14 19 -3 64 -11 100 -19 62 -14 207 -33 222 -29 4 1 25 -4 45 -12 21
-8 58 -17 83 -21 25 -3 54 -8 65 -10 11 -3 65 -11 120 -19 55 -8 111 -18 125
-24 14 -5 30 -7 36 -5 18 6 64 -16 64 -31 0 -8 14 -41 30 -74 17 -34 30 -68
30 -76 0 -9 5 -16 10 -16 6 0 10 -6 10 -12 0 -13 43 -126 61 -160 5 -10 9 -24
9 -31 0 -8 9 -24 20 -37 11 -13 20 -31 20 -40 0 -9 16 -42 35 -74 19 -32 35
-62 35 -66 0 -4 17 -43 39 -86 21 -44 45 -94 52 -111 8 -18 17 -33 21 -33 5 0
8 -7 8 -15 0 -8 4 -23 9 -33 5 -9 17 -36 27 -59 11 -24 22 -43 25 -43 4 0 33
-53 65 -117 32 -65 60 -120 64 -123 3 -3 12 -30 19 -60 13 -55 121 -287 163
-351 13 -19 29 -52 37 -74 7 -22 20 -48 29 -57 8 -10 13 -18 9 -18 -3 0 7 -26
23 -57 33 -69 73 -108 117 -118 18 -3 54 -17 79 -30 26 -13 65 -27 88 -30 40
-6 56 -11 121 -41 17 -7 50 -18 75 -25 25 -6 59 -17 75 -25 17 -7 60 -18 97
-23 37 -5 94 -19 127 -32 l61 -22 0 -57 c0 -31 3 -60 8 -64 4 -4 8 -24 9 -44
7 -117 11 -177 13 -177 2 0 6 -38 14 -140 7 -78 42 -209 67 -245 18 -27 4 -26
249 -15 167 8 335 7 362 -1 9 -3 19 0 23 6 3 6 11 8 16 5 5 -3 18 3 30 14 12
11 25 18 29 16 4 -2 29 4 57 15 40 15 65 18 126 13 60 -5 81 -2 100 10 14 9
28 12 33 7 5 -5 28 -6 52 -3 33 4 46 11 52 29 10 26 2 123 -12 141 -6 7 -4 13
4 16 10 3 11 9 1 25 -8 13 -9 23 -3 27 6 4 7 13 1 23 -4 9 -8 39 -8 65 l-1 48
32 -6 c44 -9 250 -58 254 -60 2 -2 -6 -23 -18 -47 -24 -52 -60 -174 -60 -205
0 -31 10 -34 108 -37 48 -2 120 -9 160 -16 62 -11 75 -11 82 0 5 8 7 17 4 21
-2 4 3 12 10 19 8 6 18 26 22 43 3 18 9 34 13 37 3 3 16 37 29 76 12 40 29 77
37 84 8 7 15 27 15 44 0 17 7 40 15 50 8 11 15 28 15 38 0 10 4 18 9 18 5 0
11 10 15 23 3 13 20 29 42 39 40 18 54 16 54 -8 0 -8 5 -14 10 -14 6 0 10 -9
10 -21 0 -13 -4 -18 -12 -13 -8 5 -9 0 -4 -17 4 -13 10 -48 15 -76 15 -100 23
-68 16 59 l-7 127 49 24 c26 14 67 34 90 46 23 11 47 21 54 21 6 0 27 9 45 21
38 23 57 18 49 -14 -3 -12 2 -80 10 -152 20 -165 19 -153 40 -262 10 -50 15
-98 12 -106 -3 -7 -34 -21 -69 -30 -89 -23 -210 -48 -212 -45 -7 10 -27 94
-38 156 -7 40 -17 72 -23 70 -12 -3 -7 -108 6 -124 5 -6 12 -39 16 -73 5 -48
3 -65 -8 -72 -32 -19 134 5 301 44 102 24 118 39 81 74 -16 15 -25 44 -36 118
-8 54 -18 101 -22 104 -5 3 -9 33 -10 65 -2 33 -6 62 -10 65 -5 3 -9 42 -11
87 -2 66 1 84 14 95 29 24 105 40 231 48 78 5 128 13 138 21 14 12 16 26 10
90 l-7 76 49 31 c85 55 100 60 123 35 11 -12 20 -24 20 -27 0 -3 16 -22 35
-42 19 -20 35 -39 35 -43 0 -22 39 1 71 40 20 25 58 65 83 90 43 41 51 45 99
46 29 0 67 4 85 8 33 8 33 7 20 -16 -13 -22 -17 -27 -47 -47 -12 -8 -13 -12
-1 -26 12 -15 15 -14 34 5 12 11 47 41 79 66 31 26 57 53 57 60 0 8 11 19 24
24 13 5 27 13 30 19 10 15 46 -10 46 -31 0 -10 4 -18 9 -18 5 0 12 -11 15 -24
3 -13 21 -42 38 -65 61 -75 98 -130 98 -144 0 -8 -16 -32 -35 -53 -19 -21 -49
-55 -66 -74 -17 -19 -58 -64 -91 -100 -33 -35 -67 -75 -75 -87 -9 -13 -21 -23
-27 -23 -6 0 -20 -13 -29 -30 -10 -16 -23 -30 -30 -30 -6 0 -23 -11 -37 -24
-14 -13 -47 -44 -73 -68 -27 -23 -59 -54 -70 -67 -12 -13 -42 -42 -66 -65 -24
-22 -49 -47 -55 -55 -6 -7 -25 -27 -42 -45 -17 -17 -36 -41 -43 -54 -10 -19
-15 -21 -33 -11 -11 6 -23 20 -25 30 -3 10 -8 19 -12 19 -4 0 -42 34 -84 75
-42 41 -81 75 -86 75 -5 0 -13 9 -16 20 -3 11 -15 25 -26 31 -19 10 -19 11 3
42 13 18 46 56 75 86 29 29 53 59 53 67 0 8 5 14 11 14 11 0 39 24 39 34 0 28
-78 -38 -187 -156 -44 -49 -50 -79 -22 -112 12 -14 26 -26 30 -26 11 0 179
-163 179 -173 0 -4 9 -18 21 -30 11 -12 25 -32 30 -45 10 -26 37 -29 46 -4 3
9 19 31 34 47 73 78 89 97 89 104 0 4 11 14 25 21 14 7 25 17 25 21 0 9 -3 5
116 117 120 111 130 119 152 126 10 4 24 17 30 30 6 13 25 32 41 42 17 10 33
25 36 34 3 8 18 24 35 35 16 11 30 25 30 30 0 14 37 45 44 38 10 -10 7 -25 -4
-18 -6 3 -14 -5 -19 -18 -6 -14 -15 -28 -21 -32 -5 -3 -8 -11 -5 -16 8 -12 25
-12 25 0 0 5 12 22 28 38 37 39 112 125 142 165 14 18 37 44 53 58 15 13 27
29 27 35 0 6 14 24 30 40 21 20 30 38 30 60 0 17 5 36 11 42 17 17 2 33 -30
33 -23 0 -30 -5 -34 -27 -7 -39 -29 -93 -51 -125 -10 -15 -14 -33 -10 -39 4
-8 3 -9 -4 -5 -7 4 -12 2 -12 -3 0 -6 -4 -11 -10 -11 -5 0 -7 7 -4 15 4 9 -7
30 -25 50 -17 20 -31 40 -31 45 0 5 -12 23 -27 39 -47 50 -113 148 -113 167
-1 25 -33 63 -51 60 -27 -4 -69 -39 -75 -62 -9 -36 -24 -29 -17 9 7 39 66 97
99 97 13 0 38 13 54 29 17 16 46 32 65 35 36 7 105 70 105 96 0 9 4 20 9 26
16 16 0 74 -25 91 -13 8 -24 21 -24 28 0 6 -11 17 -25 23 -14 6 -25 18 -25 27
0 8 -6 15 -12 15 -7 1 2 7 20 15 25 11 32 20 33 42 0 15 2 70 5 120 4 72 2 93
-8 93 -11 0 -11 2 0 9 7 4 15 19 17 32 1 13 8 44 15 69 28 107 32 129 41 210
4 47 11 125 13 174 3 48 8 91 11 94 3 3 5 15 5 28 0 12 3 29 6 38 8 21 117 94
164 111 37 13 112 58 138 82 7 7 16 13 19 13 10 0 77 -44 103 -67 14 -12 47
-34 73 -48 44 -23 66 -30 162 -54 31 -7 97 10 124 32 17 14 80 37 103 37 10 0
46 13 80 29 74 33 117 47 176 56 23 4 42 11 42 15 0 5 12 9 28 8 41 -1 215 31
226 42 6 6 18 10 28 10 10 0 35 9 55 20 21 11 44 20 51 20 7 0 31 9 52 20 39
20 136 48 183 54 12 1 36 8 52 15 36 16 167 40 215 41 34 0 36 -3 72 -78 49
-104 51 -112 30 -119 -9 -4 -25 -15 -35 -24 -16 -14 -67 -32 -74 -25 -1 1 5
15 13 31 14 27 14 31 -2 42 -12 9 -21 9 -30 3 -11 -10 -25 -70 -29 -126 -1
-11 -5 -25 -9 -32 -4 -6 -13 -62 -21 -125 -8 -62 -19 -134 -24 -159 -6 -26 -8
-54 -5 -62 3 -9 2 -16 -3 -16 -10 0 -28 -91 -38 -190 -6 -56 -12 -90 -42 -235
-9 -44 -18 -98 -20 -120 -3 -35 -2 -37 8 -20 13 21 23 60 40 165 6 36 15 90
20 120 5 30 11 66 13 80 2 14 4 25 6 25 1 0 4 16 7 35 2 19 9 40 13 45 5 6 11
33 14 60 9 85 24 166 46 260 12 50 24 104 25 120 9 71 17 84 40 65 13 -10 18
-10 33 3 9 8 37 21 62 27 25 7 65 23 90 36 25 13 53 24 62 24 9 0 26 10 38 22
l20 22 0 -22 c0 -12 4 -22 9 -22 5 0 8 -8 7 -17 0 -10 9 -22 21 -27 12 -6 24
-19 27 -30 5 -19 6 -19 26 -1 25 23 26 42 0 50 -13 4 -24 23 -34 58 -36 127
-65 246 -71 294 -4 29 -11 55 -16 59 -5 3 -9 11 -9 19 0 8 -5 26 -12 42 -6 15
-10 32 -9 36 1 9 -22 97 -43 162 -7 22 -20 65 -29 95 -8 30 -27 93 -41 140
-28 94 -69 245 -96 360 -10 41 -25 95 -34 119 -9 24 -16 54 -16 67 0 12 -5 26
-10 29 -6 4 -10 14 -9 23 3 24 -11 92 -26 127 -12 28 -40 122 -67 220 -5 22
-14 49 -19 60 -7 18 -48 178 -53 213 -1 7 -10 21 -18 32 -9 10 -14 21 -11 23
5 6 -12 103 -28 155 -6 18 -13 49 -15 68 -2 20 -11 52 -19 71 -8 19 -15 48
-15 63 0 26 -35 153 -48 175 -3 5 -7 18 -8 30 -5 47 -14 79 -24 89 -5 5 -10
20 -10 32 0 13 -4 25 -9 29 -6 3 -10 13 -10 23 1 26 -35 120 -71 187 -24 46
-29 64 -22 80 10 22 2 47 -24 73 -7 6 -47 28 -88 47 -58 27 -79 42 -92 67 -9
18 -27 46 -40 61 -13 16 -24 35 -24 42 0 15 -45 104 -61 119 -5 6 -9 22 -9 36
0 18 -9 31 -31 44 -17 10 -28 21 -24 24 4 4 32 8 63 9 31 1 83 3 115 5 32 3
60 1 63 -3 2 -4 44 -8 93 -8 49 -1 97 -4 105 -7 17 -7 22 -34 6 -34 -5 0 -10
-13 -10 -30 0 -19 5 -30 14 -30 16 0 29 41 20 64 -3 8 -1 21 6 28 10 12 28 39
62 93 7 11 27 43 44 70 18 28 70 89 116 136 54 55 84 92 82 104 -2 11 1 26 6
34 5 9 3 20 -6 29 -19 19 -18 44 2 40 34 -6 23 17 -13 30 -74 26 -98 26 -143
-3 -39 -24 -51 -27 -105 -23 -75 6 -119 26 -123 54 -2 17 5 24 29 33 18 6 39
11 48 11 19 0 93 58 122 94 30 38 7 32 -37 -9 -20 -20 -49 -38 -63 -42 -14 -3
-30 -9 -36 -13 -5 -5 -25 -12 -44 -17 -52 -13 -60 -34 -33 -89 13 -25 21 -49
18 -51 -8 -8 -80 -23 -114 -23 -26 0 -36 6 -50 30 -9 16 -20 30 -24 30 -5 0
-8 13 -8 30 0 24 5 31 28 36 56 12 87 29 127 69 22 23 60 56 85 75 52 39 100
87 100 100 0 24 50 34 176 33 167 0 197 -10 220 -72 9 -25 21 -50 25 -56 14
-14 11 -45 -4 -45 -8 0 -24 9 -37 20 -13 11 -28 20 -34 21 -28 2 -50 9 -107
38 -65 32 -93 38 -104 21 -3 -5 -14 -10 -25 -10 -10 0 -21 -7 -24 -16 -5 -13
-2 -15 16 -9 52 16 89 17 106 2 9 -8 45 -25 79 -37 57 -21 113 -61 113 -81 0
-4 9 -11 21 -14 12 -4 29 -26 40 -52 16 -38 18 -52 9 -79 -9 -26 -8 -39 5 -63
8 -17 12 -31 8 -31 -9 0 -62 -137 -62 -160 0 -8 -13 -82 -30 -165 -33 -160
-37 -195 -22 -210 6 -6 13 -61 17 -122 4 -62 11 -113 15 -113 5 0 9 -7 9 -16
0 -9 6 -30 14 -47 7 -18 24 -70 36 -117 13 -47 29 -96 35 -110 21 -42 85 -209
85 -221 0 -6 13 -38 28 -72 16 -34 35 -80 43 -102 7 -22 21 -51 30 -65 9 -14
22 -42 28 -62 13 -40 37 -54 26 -15 -31 103 -39 127 -56 164 -10 24 -19 50
-19 58 0 9 -14 46 -30 83 -17 36 -32 74 -33 84 -2 10 -6 21 -10 24 -4 4 -7 15
-7 25 0 10 -11 38 -24 62 -13 25 -31 78 -41 119 -9 40 -26 88 -36 106 -11 18
-19 48 -19 67 0 19 -4 56 -10 82 -5 26 -12 75 -15 108 -3 33 -7 74 -9 90 -1
17 -6 40 -10 53 -10 29 2 82 17 77 7 -2 102 -6 212 -9 110 -3 223 -9 250 -15
28 -5 93 -12 145 -16 52 -4 111 -8 130 -11 79 -10 211 -15 497 -19 361 -4 563
-12 698 -25 240 -24 428 -40 540 -46 66 -4 136 -8 155 -10 19 -1 88 -7 152
-13 65 -5 122 -12 127 -15 5 -4 35 -9 65 -11 70 -7 93 -16 129 -49 15 -14 34
-26 41 -26 7 0 21 -9 31 -20 10 -11 22 -20 27 -20 5 0 31 -23 58 -50 29 -30
62 -53 80 -56 25 -6 30 -11 30 -36 0 -31 16 -68 34 -80 16 -11 84 -10 91 2 3
6 -4 10 -18 10 -37 0 -79 57 -102 138 -3 12 -11 22 -17 22 -6 0 -1 9 12 20 23
20 23 20 2 20 -12 0 -26 -9 -32 -21 -11 -20 -13 -20 -31 -4 -10 10 -21 25 -24
35 -3 9 -28 28 -55 41 -27 13 -52 31 -55 39 -3 9 -35 31 -71 49 -69 35 -113
43 -324 56 -47 3 -125 10 -175 15 -102 12 -133 14 -370 29 -93 6 -231 15 -305
21 -289 21 -381 25 -543 23 -92 -2 -194 1 -228 6 -36 5 -62 4 -66 -2 -3 -5 -8
-5 -12 1 -3 6 -55 13 -116 16 -60 3 -146 8 -190 11 -44 3 -114 7 -155 10 -41
2 -113 9 -160 15 -88 10 -208 14 -367 11 -51 -1 -93 1 -93 3 0 3 4 15 9 28 5
13 12 59 15 103 4 44 9 88 12 97 5 18 9 31 25 101 6 27 18 51 26 54 8 3 58 1
111 -5 54 -7 158 -14 232 -17 119 -5 218 -15 300 -29 14 -2 50 -7 80 -10 30
-4 100 -13 156 -21 55 -9 121 -16 147 -17 25 -1 41 -5 35 -9 -7 -4 -4 -9 8
-12 13 -3 9 -5 -11 -7 l-30 -1 35 -13 c23 -8 125 -16 290 -20 316 -10 314 -10
320 -17 7 -9 280 -32 288 -25 3 3 0 6 -6 6 -6 0 -9 6 -6 14 3 8 13 12 25 9 16
-5 18 -8 7 -14 -10 -7 -9 -9 5 -9 9 0 17 5 17 11 0 5 5 7 10 4 6 -4 8 -10 5
-15 -7 -12 38 -19 122 -19 39 0 118 -7 175 -15 144 -21 479 -56 541 -56 29 0
97 -12 152 -26 55 -14 110 -28 122 -31 13 -3 20 -9 17 -14 -6 -10 -5 -10 74
-14 28 -2 52 1 52 6 0 5 -21 9 -47 10 -27 0 -41 3 -33 6 8 3 18 11 22 16 12
18 96 12 119 -9 19 -17 35 -19 173 -17 104 2 183 9 254 23 160 32 291 50 363
50 36 0 69 4 75 10 6 6 32 4 72 -4 34 -7 62 -9 62 -4 0 4 -6 8 -13 8 -7 0 -29
8 -49 19 -22 11 -71 21 -122 25 -84 7 -155 -3 -336 -44 -73 -17 -270 -38 -331
-35 -31 2 -78 13 -105 25 -27 13 -71 24 -99 26 -66 4 -118 14 -130 24 -6 5
-42 10 -80 11 -39 1 -86 6 -105 10 -19 4 -62 11 -95 14 -33 4 -63 9 -66 11
-12 7 -224 23 -379 29 -164 6 -286 12 -364 20 -138 14 -298 27 -341 30 -127 6
-404 26 -435 30 -19 3 -62 8 -95 11 -33 3 -71 8 -85 9 -14 2 -55 6 -91 9 -37
4 -89 10 -116 16 -28 5 -106 12 -174 15 -68 4 -130 9 -138 11 -8 3 -44 7 -80
10 -78 5 -146 12 -146 14 0 1 -18 3 -40 5 -321 21 -299 16 -292 59 3 19 0 39
-6 45 -6 6 -8 11 -4 11 10 0 -18 54 -38 74 -9 8 -24 48 -34 89 -41 160 -74
182 -270 182 l-134 0 -61 -58 c-47 -45 -65 -57 -81 -52 -11 4 -50 9 -86 11
l-66 5 -38 -48 c-48 -60 -144 -151 -167 -159 -10 -3 -25 -18 -33 -34 -15 -28
-27 -31 -67 -15 -11 4 -18 1 -21 -12 -4 -16 -5 -16 -6 -1 0 10 -11 20 -23 23
-26 5 -169 21 -268 30 -138 13 -218 25 -263 40 -25 8 -84 18 -129 20 -46 3
-96 7 -111 11 -28 6 -28 6 -23 72 3 37 10 99 15 138 13 89 7 205 -11 219 -7 5
-21 22 -31 38 -19 30 -37 36 -37 12 0 -8 -6 -15 -14 -15 -11 0 -8 -12 12 -47
14 -27 30 -51 35 -54 5 -3 9 -28 9 -54 0 -56 -21 -293 -28 -315 -4 -10 -16 -3
-44 28 -22 23 -44 42 -49 42 -6 0 -34 11 -63 24 -62 28 -114 43 -181 51 -26 4
-64 9 -85 12 -92 13 -172 14 -172 4 0 -7 14 -11 33 -10 41 2 131 -15 227 -42
41 -11 91 -25 110 -29 49 -11 100 -31 100 -39 0 -4 13 -15 30 -24 33 -20 85
-100 77 -120 -10 -25 -112 -44 -307 -56 -75 -5 11 -21 145 -27 157 -8 189 1
206 56 23 72 33 80 102 80 34 -1 96 -6 137 -11 41 -6 87 -11 103 -11 15 -1 27
-5 27 -9 0 -5 -4 -9 -10 -9 -5 0 -10 -4 -10 -10 0 -5 15 -10 33 -9 26 1 28 2
10 7 -17 5 -20 11 -13 22 7 10 12 12 18 4 9 -14 62 -27 62 -15 0 5 11 4 25 -2
l24 -12 -22 -6 c-14 -4 -1 -7 33 -8 99 -3 231 -24 284 -46 21 -9 85 -18 149
-22 82 -5 120 -11 142 -25 43 -26 138 -25 175 2 26 18 35 19 87 10 32 -6 78
-13 103 -16 25 -3 48 -10 51 -15 3 -5 13 -7 21 -4 9 4 19 2 23 -4 3 -6 16 -11
27 -11 18 0 14 -8 -26 -50 -25 -27 -46 -54 -46 -60 0 -7 -22 -35 -50 -63 -27
-28 -50 -57 -50 -63 0 -7 -16 -30 -35 -51 -19 -21 -35 -41 -35 -45 0 -3 -66
-7 -147 -7 -82 0 -170 -5 -198 -10 -32 -6 -52 -6 -56 1 -7 11 -166 -25 -182
-41 -6 -6 -23 -11 -37 -11 -14 0 -43 -9 -65 -20 -22 -11 -44 -20 -50 -20 -6 0
-28 -9 -50 -20 -22 -11 -45 -20 -52 -20 -6 0 -33 -14 -58 -31 -71 -48 -74 -43
-59 110 7 72 17 139 22 148 6 10 13 64 17 121 5 88 4 102 -9 102 -19 0 -22
-15 -34 -145 -6 -56 -15 -101 -21 -103 -15 -5 -14 -29 2 -35 9 -4 8 -8 -3 -16
-8 -6 -12 -11 -8 -11 3 0 0 -19 -6 -42 -7 -24 -14 -70 -15 -102 -2 -47 -6 -63
-22 -74 -11 -8 -24 -24 -29 -36 l-9 -21 0 22 c-1 13 9 29 23 38 20 13 23 21
17 43 -4 15 -3 60 3 100 8 61 7 75 -4 82 -8 5 -19 5 -26 -1 -12 -10 -187 -5
-217 7 -12 4 -17 1 -17 -10 0 -12 10 -16 38 -17 59 -1 104 -8 118 -20 7 -6 14
-6 18 0 3 5 15 7 26 4 18 -5 20 -11 14 -49 -4 -27 -2 -49 4 -57 17 -20 3 -57
-22 -58 -11 -1 -25 0 -31 1 -5 1 -28 3 -50 5 -22 2 -74 7 -115 10 -73 7 -115
12 -115 15 0 1 -53 8 -120 15 -16 1 -73 3 -126 4 l-96 1 -29 43 c-15 23 -30
44 -31 46 -2 2 -6 1 -9 -2 -4 -4 8 -31 26 -61 l33 -55 66 0 c85 0 244 -11 254
-18 13 -8 56 -12 136 -13 41 -1 84 -5 95 -9 18 -7 17 -10 -14 -23 -19 -9 -60
-23 -92 -32 -77 -23 -100 -54 -100 -131 0 -34 26 -95 41 -95 16 0 21 29 10 57
-17 47 -3 90 39 116 48 30 101 51 108 44 4 -3 3 -38 -1 -76 -5 -51 -11 -71
-21 -71 -9 0 -14 -12 -14 -34 0 -18 -3 -48 -6 -65 -6 -30 -8 -31 -29 -17 l-23
15 15 -39 c9 -21 13 -49 10 -62 -8 -31 -67 -62 -171 -90 -76 -21 -100 -22
-411 -20 -308 1 -389 4 -555 18 -132 11 -135 11 -138 -13 -3 -20 1 -22 40 -22
24 1 124 -6 223 -15 99 -8 236 -18 305 -20 69 -3 198 -9 287 -12 152 -7 164
-6 216 15 29 12 58 21 63 20 5 -2 29 3 53 10 39 11 45 11 53 -3 5 -9 13 -14
17 -11 5 2 2 -21 -5 -53 -7 -31 -13 -58 -13 -60 0 -1 -5 -27 -12 -57 -11 -51
-11 -57 7 -69 21 -16 31 -7 39 36 3 12 9 26 15 32 5 5 10 19 10 30 0 12 9 32
20 46 11 14 20 32 20 40 0 8 12 47 26 85 14 39 30 84 36 100 17 50 40 99 54
115 7 9 19 60 25 113 11 90 14 98 33 95 17 -2 22 -11 24 -50 2 -29 -1 -48 -7
-48 -6 0 -11 -11 -11 -25 0 -14 -4 -33 -9 -43 -11 -22 -54 -150 -93 -277 -17
-55 -38 -118 -47 -140 -9 -21 -16 -42 -16 -46 0 -4 -3 -11 -7 -15 -5 -4 -8
-15 -8 -25 0 -27 -55 -76 -93 -83 -32 -6 -35 -10 -41 -54 -3 -26 -12 -69 -20
-97 -19 -69 -36 -144 -46 -207 -5 -29 -19 -80 -31 -113 -12 -33 -30 -103 -39
-155 -10 -52 -27 -120 -39 -150 -12 -30 -21 -64 -21 -75 0 -11 -9 -51 -19 -90
-10 -38 -30 -115 -45 -170 -14 -55 -33 -121 -42 -148 -9 -26 -22 -84 -29 -130
-7 -45 -20 -107 -30 -137 -9 -30 -20 -77 -25 -105 -4 -27 -11 -66 -15 -85 -4
-19 -8 -50 -10 -68 -2 -18 -8 -39 -12 -45 -5 -7 -10 -25 -11 -42 -1 -16 -9
-54 -17 -82 -9 -29 -20 -88 -25 -130 -5 -43 -18 -114 -29 -158 -11 -44 -29
-125 -41 -180 -12 -55 -25 -109 -30 -120 -4 -11 -16 -58 -25 -105 -9 -47 -20
-101 -24 -120 -4 -19 -15 -47 -24 -60 -9 -14 -21 -49 -27 -78 -11 -49 -13 -51
-32 -38 -24 17 -122 11 -156 -10 -19 -13 -26 -12 -55 3 -47 25 -318 53 -340
35 -7 -6 -38 -17 -68 -23 -30 -6 -65 -18 -79 -27 -14 -9 -29 -15 -35 -13 -5 1
-44 5 -85 7 -132 7 -180 50 -180 157 0 24 -6 67 -14 97 -24 100 0 289 40 313
8 4 14 13 14 20 0 7 11 25 25 41 14 16 25 34 25 41 0 6 11 22 25 35 14 13 25
20 25 16 0 -5 7 -3 15 4 8 7 15 10 15 6 0 -4 13 0 30 9 42 22 60 19 60 -9 0
-31 23 -39 63 -21 17 7 40 16 51 19 12 4 16 11 11 24 -4 9 -9 23 -12 30 -3 6
2 12 11 12 9 0 16 -7 16 -15 0 -22 14 -18 25 8 6 12 21 24 35 25 36 5 50 20
47 50 -1 14 4 27 11 30 7 2 19 11 27 19 18 18 84 56 138 79 20 9 37 20 37 25
0 5 10 9 23 9 12 0 31 6 42 14 11 7 22 14 25 14 3 0 17 6 33 13 21 9 27 19 27
42 0 29 -1 29 -18 14 -10 -10 -24 -17 -31 -17 -6 0 -40 -16 -75 -35 -35 -19
-72 -35 -81 -35 -10 0 -45 -19 -79 -42 -46 -32 -71 -43 -101 -43 l-40 0 3 -52
c3 -39 0 -53 -10 -53 -7 0 -22 -3 -34 -6 -18 -5 -21 1 -30 48 -5 29 -13 51
-18 48 -9 -5 -9 -121 0 -151 3 -12 -4 -18 -27 -23 -18 -3 -33 -5 -33 -4 -11
30 -35 62 -49 64 -11 1 -39 -8 -64 -22 -25 -13 -53 -24 -61 -24 -18 0 -92 -78
-92 -96 0 -12 -22 -62 -51 -116 -5 -10 -9 -25 -9 -33 0 -8 -3 -15 -7 -15 -5 0
-8 54 -8 119 0 132 -6 118 88 214 44 46 59 77 37 77 -5 0 -10 -4 -10 -10 0 -5
-6 -10 -13 -10 -8 0 -19 -12 -26 -26 -6 -15 -15 -24 -18 -20 -7 7 -63 -52 -63
-66 0 -5 -5 -6 -11 -3 -6 4 -20 -2 -32 -13 -12 -11 -32 -23 -44 -27 -13 -3
-23 -13 -23 -21 0 -8 -4 -14 -10 -14 -5 0 -27 -15 -47 -33 -50 -44 -179 -127
-197 -127 -8 0 -24 -12 -35 -27 -18 -24 -22 -26 -30 -12 -8 13 -22 14 -82 8
-40 -5 -76 -6 -81 -3 -4 3 -8 1 -8 -3 0 -12 -124 -8 -190 6 -102 21 -240 75
-240 93 0 5 -7 8 -16 8 -13 0 -79 42 -94 61 -6 7 -46 29 -54 29 -19 0 14 -34
64 -65 33 -20 65 -47 73 -58 8 -12 50 -40 93 -62 44 -21 105 -56 136 -77 31
-21 63 -38 71 -38 8 0 20 -7 27 -15 7 -8 21 -15 31 -15 10 0 20 -4 23 -9 10
-15 63 -20 102 -10 46 13 134 66 134 82 0 16 73 77 91 77 9 0 22 7 29 15 7 8
21 15 32 15 22 0 108 56 108 70 0 6 5 10 11 10 7 0 25 13 40 30 16 16 29 27
29 24 0 -3 10 2 22 10 12 9 25 16 28 16 3 0 6 -66 6 -148 1 -81 6 -169 12
-197 5 -27 15 -74 21 -104 6 -30 14 -86 17 -125 4 -39 8 -82 9 -96 1 -14 3
-32 4 -40 1 -15 43 -39 70 -41 34 -1 -25 -18 -67 -18 -24 -1 -57 -8 -73 -17
-48 -24 -216 -32 -769 -33 -511 -1 -680 6 -732 30 -34 15 -27 29 13 29 17 0
28 4 25 9 -4 5 3 7 15 4 12 -3 32 2 47 13 15 11 45 28 67 38 94 45 121 61 145
90 14 16 25 37 26 45 1 9 3 23 6 31 14 40 37 158 36 185 0 17 1 66 2 110 3 88
-6 142 -26 162 -29 29 -35 14 -29 -73 4 -59 3 -90 -6 -100 -19 -23 -27 -16
-24 21 2 19 -1 63 -6 97 -6 35 -13 80 -16 102 -3 21 -17 50 -30 64 -38 41 -9
38 42 -3 102 -85 9 51 -106 152 -35 30 -64 65 -77 90 -7 11 -24 34 -40 50 -24
23 -32 49 -55 158 -35 166 -44 255 -53 491 -11 324 -5 454 21 454 8 0 15 4 17
8 2 5 20 12 41 15 22 3 35 2 32 -4 -10 -16 12 -10 51 13 21 12 32 24 26 26
-11 3 -62 102 -62 121 0 6 -7 8 -15 5 -8 -4 -15 -1 -15 5 0 6 6 11 13 11 8 0
9 2 1 8 -6 4 -15 22 -19 40 -11 53 -24 36 -19 -25 8 -98 12 -127 19 -145 6
-16 0 -18 -58 -18 l-65 0 4 -72 c2 -40 6 -181 9 -313 7 -379 25 -584 57 -668
8 -20 8 -35 0 -52 -9 -19 -9 -32 0 -52 6 -16 12 -32 12 -38 1 -5 8 -36 15 -68
12 -54 15 -59 36 -55 20 4 25 -1 36 -41 7 -25 21 -67 33 -94 18 -42 24 -48 58
-53 21 -4 42 -12 46 -18 27 -34 32 -224 8 -271 -25 -47 -21 -59 16 -51 18 3
42 16 54 27 26 24 39 11 24 -23 -6 -13 -17 -66 -25 -118 -9 -52 -17 -101 -18
-109 -2 -7 -23 -20 -48 -28 -24 -8 -51 -21 -59 -28 -8 -6 -30 -18 -47 -26 -18
-8 -33 -18 -33 -22 0 -5 -4 -5 -10 -2 -13 8 -123 -13 -193 -37 -49 -17 -64
-18 -105 -8 -26 6 -74 15 -107 20 -68 10 -114 18 -133 25 -18 6 -60 -22 -67
-46 -7 -20 -81 -59 -114 -59 -11 0 -23 -5 -27 -11 -9 -15 -61 36 -85 83 -11
21 -24 38 -29 38 -6 0 -10 6 -10 14 0 8 -16 31 -35 50 -19 20 -35 40 -35 46 0
5 -10 12 -22 16 -13 3 -29 11 -37 17 -23 19 -69 22 -236 14 -27 -2 -81 3 -120
11 -38 8 -92 16 -118 18 -37 3 -56 10 -78 32 -17 16 -42 35 -57 43 -14 8 -34
22 -44 31 -10 10 -38 27 -63 39 -48 23 -63 22 -162 -5 -42 -12 -72 -13 -155
-4 -57 6 -107 14 -112 19 -6 5 -25 9 -43 9 -27 0 -36 6 -58 43 -14 24 -25 49
-25 54 0 6 -16 39 -35 73 -19 34 -38 74 -41 87 -4 14 -20 49 -35 79 -16 29
-29 59 -29 65 0 6 -16 43 -35 83 -19 40 -35 77 -35 82 0 5 -18 45 -40 88 -22
43 -40 85 -40 92 0 7 -11 34 -25 60 -14 26 -25 51 -25 56 0 6 -7 25 -15 44 -8
19 -22 49 -30 68 -8 19 -15 40 -15 48 0 8 -4 18 -8 23 -5 6 -17 33 -26 60 -10
28 -24 64 -32 82 -8 17 -14 36 -14 42 0 6 -4 19 -9 29 -5 9 -17 34 -25 54 -9
20 -21 40 -25 43 -5 3 -13 20 -16 38 -4 17 -10 37 -14 42 -4 6 -13 30 -21 55
-15 49 -45 126 -60 150 -34 57 -100 205 -100 226 0 13 15 48 33 77 93 145 177
298 177 321 0 9 6 16 14 16 8 0 18 9 21 20 3 11 11 20 16 20 5 0 9 9 9 21 0
11 8 33 18 47 32 50 42 67 48 82 3 8 10 23 15 32 5 10 9 24 9 31 0 7 11 28 25
47 14 19 25 42 25 51 0 10 4 19 9 21 4 2 19 24 32 49 39 73 142 208 164 215
11 3 37 24 58 46 l38 39 47 -11 c111 -26 178 -41 197 -43 11 -1 23 -6 26 -11
9 -12 150 -25 289 -25 63 -1 156 -7 205 -15 50 -7 124 -12 165 -11 83 3 488
41 535 51 17 3 48 10 70 15 22 4 94 13 160 19 66 5 150 15 188 22 37 6 70 8
75 3 4 -4 2 -10 -5 -12 -19 -7 -109 -96 -122 -120 -6 -13 -18 -23 -25 -23 -7
0 -17 -10 -23 -23 -6 -12 -20 -34 -31 -47 -48 -57 -93 -117 -111 -151 -11 -20
-31 -43 -45 -53 -14 -9 -26 -22 -26 -28 0 -6 -11 -26 -25 -44 -14 -18 -25 -43
-25 -55 0 -21 1 -22 20 -4 11 10 20 23 20 30 0 6 19 30 43 52 23 22 54 58 70
79 15 21 43 59 62 84 19 25 40 57 46 73 6 15 17 27 24 27 7 0 21 12 30 28 21
31 89 99 160 157 27 22 58 50 69 63 11 12 24 22 29 22 5 0 21 12 36 28 37 37
92 82 100 82 4 0 17 9 29 20 32 30 201 115 265 134 31 9 59 21 62 26 3 6 14
10 23 10 9 0 30 7 46 15 15 8 33 15 40 15 6 0 24 7 40 15 35 19 157 45 207 45
20 0 50 -7 65 -15 16 -8 39 -15 51 -15 29 0 221 -48 250 -62 26 -13 28 -12 37
19 6 20 1 24 -56 41 -40 11 -63 23 -63 33 0 11 15 14 73 12 43 -1 70 2 67 8
-4 5 -19 9 -34 9 -15 0 -35 8 -44 18 -24 26 -21 46 3 22 11 -11 29 -20 40 -20
25 0 25 9 3 26 -10 7 -13 14 -7 14 6 0 17 -7 24 -15 7 -8 22 -15 34 -15 17 0
18 2 6 10 -16 10 -13 12 35 15 78 5 82 6 46 15 -19 4 -49 7 -68 5 -29 -2 -33
1 -33 21 0 16 -6 24 -16 24 -14 0 -15 -2 -3 -17 8 -9 -6 -3 -31 15 -71 50 -80
58 -80 74 0 8 -11 20 -25 26 -14 6 -25 16 -25 22 0 6 -10 15 -22 20 -21 8 -20
9 12 11 58 4 91 3 170 -5 69 -7 77 -10 95 -37 11 -17 19 -34 18 -39 -1 -4 9
-11 22 -14 16 -4 25 -14 25 -25 0 -10 7 -22 16 -25 24 -9 54 -7 54 4 0 14 -32
50 -45 50 -5 0 -22 15 -37 34 l-27 33 37 -4 c20 -2 39 -8 40 -14 3 -6 9 -6 17
1 8 7 21 10 29 8 15 -3 236 -235 236 -247 0 -3 -30 -6 -68 -6 -72 0 -112 21
-112 57 0 14 -8 18 -32 18 -30 -1 -31 -2 -15 -14 9 -7 17 -20 17 -28 0 -9 10
-18 22 -21 29 -8 20 -16 -20 -19 -37 -3 -37 -4 -17 -24 23 -23 19 -38 -7 -29
-46 16 -162 17 -182 2 -28 -20 -12 -36 32 -30 22 3 67 -4 112 -17 130 -37 191
-51 200 -45 9 5 46 -9 146 -56 22 -10 43 -19 46 -19 3 0 20 -13 38 -30 18 -16
36 -30 40 -30 11 0 80 -67 80 -78 0 -5 18 -27 40 -48 22 -22 40 -43 40 -47 0
-4 9 -18 20 -29 11 -12 25 -37 32 -55 7 -18 20 -36 30 -39 10 -3 16 -9 14 -13
-3 -4 2 -18 11 -31 14 -20 106 -198 108 -210 1 -3 15 -35 33 -72 18 -37 32
-70 32 -73 0 -7 38 -91 78 -172 14 -29 28 -53 32 -53 4 0 7 -14 8 -30 0 -17
12 -68 26 -113 15 -45 31 -100 37 -122 7 -22 21 -65 31 -95 11 -30 27 -82 35
-115 8 -33 27 -103 43 -155 16 -52 32 -113 36 -135 3 -22 11 -48 16 -59 6 -10
11 -28 13 -40 4 -28 32 -149 51 -214 14 -49 13 -72 -4 -72 -8 0 -65 108 -82
153 -10 29 -17 32 -39 18 -11 -7 -11 -25 2 -112 9 -57 23 -121 31 -141 9 -21
16 -59 16 -85 1 -26 5 -68 10 -93 12 -61 4 -93 -20 -80 -27 14 -69 -5 -70 -32
0 -4 15 -12 34 -19 22 -8 37 -21 41 -36 4 -18 12 -23 36 -23 l31 0 -7 48 c-3
26 -6 70 -6 97 0 53 -24 187 -38 214 -12 23 -25 118 -14 108 4 -5 13 -23 19
-40 12 -36 40 -45 83 -28 48 21 54 42 31 128 -12 42 -23 80 -26 85 -8 12 -40
136 -49 183 -4 22 -13 51 -20 65 -17 33 -35 92 -35 113 0 10 -17 70 -39 135
-21 64 -45 141 -52 170 -7 28 -16 52 -21 52 -4 0 -8 11 -8 24 0 14 -4 27 -9
30 -4 3 -11 26 -14 51 -9 64 -37 148 -54 162 -8 6 -12 16 -9 21 3 5 -2 20 -12
33 -18 26 -27 43 -91 189 -24 52 -47 103 -52 113 -6 10 -19 37 -30 60 -12 23
-27 54 -35 68 -8 15 -24 46 -36 70 -13 24 -27 47 -33 51 -5 4 -7 8 -3 8 7 0
-59 131 -70 140 -4 3 -24 31 -45 63 -38 58 -160 187 -177 187 -5 0 -28 13 -52
29 -24 15 -70 36 -103 46 -33 11 -62 22 -65 26 -3 4 -39 15 -79 25 -58 13 -71
18 -57 26 24 14 172 14 189 0 17 -15 57 -4 57 15 0 26 -40 74 -154 189 -126
125 -177 155 -271 160 -33 2 -91 5 -130 8 -38 3 -171 8 -295 11 -124 3 -259
10 -300 15 -41 5 -149 12 -240 15 -91 3 -237 12 -325 20 -88 8 -218 19 -290
25 -147 13 -170 15 -205 23 -14 3 -49 9 -79 12 -29 3 -58 8 -62 11 -5 3 -44 7
-87 10 -47 3 -79 9 -81 17 -5 15 -124 132 -155 152 -12 8 -49 17 -82 19 -102
8 -236 26 -316 43 -43 9 -80 14 -83 11 -6 -6 8 -40 29 -73 7 -11 38 -47 69
-80 31 -33 57 -63 57 -67 0 -7 121 -130 161 -165 8 -7 43 -44 79 -84 36 -39
72 -78 82 -86 9 -8 41 -38 71 -66 90 -86 122 -113 150 -132 26 -17 27 -17 27
2 0 16 8 20 48 21 35 1 42 -1 27 -8 -11 -5 -30 -9 -43 -9 -31 -1 -24 -23 9
-28 41 -6 225 14 247 28 31 20 42 51 26 74 -14 18 -15 18 -34 -3 -20 -21 -28
-22 -176 -20 -150 1 -156 2 -173 25 -11 12 -22 23 -26 23 -4 0 -14 8 -21 18
-13 16 -14 16 -8 0 8 -24 -1 -23 -26 4 -22 24 -13 38 26 38 27 0 81 -55 62
-64 -7 -3 -2 -3 11 0 18 5 22 3 15 -7 -6 -12 -5 -12 9 0 9 7 17 17 17 22 0 12
-176 189 -189 189 -6 0 -11 3 -11 8 0 6 -39 48 -83 88 -9 8 -15 20 -12 25 4 5
0 9 -7 9 -8 0 -43 30 -78 68 -72 75 -109 107 -116 99 -3 -2 18 -29 47 -58 28
-29 47 -55 40 -57 -6 -2 -11 -8 -11 -13 0 -4 7 -6 15 -2 10 3 29 -8 51 -31 19
-20 31 -36 27 -36 -4 0 7 -9 25 -20 17 -11 32 -25 32 -30 0 -6 13 -22 28 -35
15 -13 34 -35 41 -49 8 -14 19 -26 25 -27 6 0 21 -13 34 -30 l24 -29 -32 0
c-35 0 -70 15 -70 31 0 13 -146 159 -160 159 -5 0 -10 7 -10 15 0 8 -5 15 -11
15 -5 0 -7 5 -4 10 3 6 -1 10 -11 10 -13 0 -14 3 -4 15 7 8 8 15 3 15 -6 0
-15 10 -21 23 -8 17 -11 18 -11 5 -1 -10 -5 -18 -10 -18 -13 0 -23 17 -14 23
5 2 3 3 -2 2 -6 -2 -26 15 -45 36 -19 22 -54 59 -76 83 -27 29 -38 48 -32 54
12 12 57 -5 92 -35 25 -22 44 -20 25 3 -14 17 -3 34 21 34 10 0 22 5 25 10 3
6 11 10 17 10 6 0 8 -3 4 -7 -9 -9 87 -32 136 -33 35 0 68 -20 68 -41 0 -6 13
-15 29 -20 17 -6 36 -24 45 -42 8 -18 28 -40 44 -51 15 -10 34 -31 41 -47 7
-15 39 -56 72 -90 32 -35 59 -66 59 -69 0 -3 16 -23 35 -45 19 -22 35 -42 36
-45 0 -3 2 -15 3 -28 2 -12 11 -29 22 -37 17 -13 13 -14 -43 -15 -53 0 -62 -3
-60 -18 1 -16 8 -17 76 -10 42 5 79 12 84 17 6 6 5 22 -1 40 l-11 31 82 0 c76
0 141 -6 332 -32 88 -11 106 -13 345 -27 251 -16 340 -14 340 4 0 12 4 13 18
6 9 -5 40 -11 68 -15 29 -3 65 -8 80 -13 29 -7 29 -7 -11 -14 -22 -4 -60 -15
-85 -24 -25 -10 -62 -19 -82 -20 -20 -1 -64 -16 -97 -34 -33 -17 -65 -31 -72
-31 -6 0 -25 -6 -42 -14 -18 -8 -61 -28 -97 -44 -57 -25 -255 -151 -270 -170
-8 -11 -68 -52 -76 -52 -4 0 -18 -12 -31 -26 -19 -21 -27 -23 -38 -14 -8 7
-26 9 -42 6 -15 -4 -82 -13 -148 -22 -66 -8 -156 -20 -200 -26 -98 -13 -128
-13 -133 1 -6 18 -22 12 -22 -8 0 -25 -12 -28 -140 -36 -58 -3 -139 -10 -180
-15 -142 -17 -275 -21 -355 -10 -44 6 -150 12 -235 15 -213 7 -272 13 -356 40
-39 12 -105 28 -145 35 -41 7 -106 28 -146 46 -40 19 -77 34 -82 34 -5 0 -33
16 -62 36 -39 26 -56 45 -62 67 -13 52 -29 87 -39 87 -6 0 -8 7 -4 15 3 9 0
15 -9 15 -8 0 -14 3 -13 8 4 13 -36 72 -49 72 -7 0 -13 3 -13 8 0 14 -55 68
-108 105 -43 31 -60 37 -101 37 -28 0 -53 5 -56 10 -3 6 -17 10 -29 10 -16 0
-26 8 -30 23 -7 21 -8 21 -15 2 -6 -16 -9 -13 -14 17 -3 21 -12 52 -20 70 -8
18 -19 45 -25 60 -7 16 -11 98 -11 205 1 144 4 191 20 248 11 39 24 93 29 122
31 180 145 389 282 520 18 17 56 54 84 82 28 28 55 51 61 51 5 0 23 11 39 25
16 14 34 25 41 25 6 0 28 16 47 35 20 19 41 35 46 35 13 0 86 46 94 58 3 6 22
13 41 16 19 4 35 11 35 16 0 6 8 10 18 10 10 0 26 6 37 13 11 8 40 19 65 26
25 7 56 21 70 33 16 12 19 18 8 14 -10 -3 -20 -1 -23 4 -10 16 -26 12 -120
-35z m-856 -714 c19 -19 21 -27 13 -49 -15 -40 -31 -102 -40 -147 l-8 -40 -52
-3 c-47 -3 -53 -5 -50 -24 2 -12 -2 -23 -7 -25 -11 -3 -14 31 -18 172 -2 62 1
75 23 102 14 17 32 33 40 35 34 10 78 0 99 -21z m-180 -258 c2 -95 4 -113 12
-128 5 -9 5 -18 1 -52 -1 -6 -12 -13 -24 -15 -15 -2 -24 -11 -26 -26 -2 -12
-8 -20 -13 -17 -12 8 -12 147 1 180 6 15 11 54 12 86 1 48 5 59 18 59 14 0 17
-14 19 -87z m7841 36 c0 -3 -12 -12 -27 -20 -15 -8 -40 -25 -55 -39 -51 -48
-46 -46 -145 -66 -21 -4 -15 11 15 38 15 14 42 44 60 66 21 26 43 42 60 44 28
3 92 -13 92 -23z m-7690 -78 c0 -9 -5 -36 -11 -61 -17 -69 -17 -73 -18 -97 -1
-24 -25 -31 -37 -11 -8 13 -15 168 -8 179 2 4 20 7 39 6 25 -1 35 -6 35 -16z
m7413 -98 c-3 -16 -6 -36 -5 -45 0 -13 -6 -18 -26 -17 -24 0 -25 1 -7 9 11 5
14 9 8 9 -27 2 -2 71 25 71 9 0 10 -8 5 -27z m-7673 -117 c0 -19 6 -37 13 -39
16 -7 -31 -46 -55 -47 -10 0 -18 -4 -18 -10 0 -5 -7 -7 -15 -4 -8 4 -15 2 -15
-3 0 -5 -18 -10 -40 -11 -22 -2 -40 2 -40 7 0 12 45 48 71 56 10 4 19 11 19
17 0 12 59 67 73 68 4 0 7 -15 7 -34z m200 -16 c0 -10 8 -24 18 -29 15 -9 15
-10 1 -11 -26 0 -29 -21 -28 -188 0 -86 -4 -179 -11 -206 -6 -27 -9 -55 -6
-62 3 -7 1 -14 -3 -16 -4 -2 -15 -37 -23 -78 -13 -57 -14 -76 -5 -82 9 -6 9
-8 -1 -8 -7 0 -12 -12 -12 -27 -1 -50 -12 -133 -18 -133 -4 0 -7 -35 -7 -78
-1 -42 -4 -133 -9 -202 -13 -210 -15 -314 -7 -325 5 -5 12 -28 15 -50 11 -59
47 -155 59 -155 6 0 7 -3 4 -7 -4 -3 -3 -11 2 -17 5 -6 17 -38 26 -71 10 -33
22 -66 29 -74 6 -8 10 -16 8 -18 -4 -5 10 -55 24 -82 8 -14 14 -34 14 -43 0
-9 5 -20 10 -23 6 -3 10 -17 10 -31 0 -13 4 -24 9 -24 5 0 14 -15 21 -32 31
-84 93 -221 137 -303 30 -56 73 -155 87 -198 9 -27 23 -62 31 -78 9 -16 15
-30 14 -31 -3 -10 16 -71 36 -114 13 -27 29 -72 36 -100 6 -27 16 -53 20 -58
5 -6 9 -17 9 -25 0 -8 8 -33 19 -55 10 -23 24 -57 31 -76 7 -19 23 -58 36 -87
13 -28 24 -59 24 -67 0 -9 9 -24 20 -33 11 -10 20 -25 20 -35 0 -9 4 -19 9
-22 4 -3 11 -24 15 -46 3 -22 13 -43 21 -46 8 -4 13 -10 10 -14 -3 -5 -1 -11
5 -15 5 -3 10 -15 10 -26 0 -10 4 -19 8 -19 5 0 14 -19 21 -42 7 -24 26 -72
43 -108 17 -36 41 -87 53 -115 13 -27 27 -61 31 -75 3 -14 12 -32 19 -40 8 -8
14 -19 14 -23 0 -7 13 -36 71 -162 15 -33 30 -72 34 -87 3 -15 20 -56 36 -91
17 -36 30 -72 30 -79 0 -25 32 -108 41 -108 5 0 9 -7 9 -15 0 -8 5 -15 11 -15
13 0 4 61 -10 70 -5 3 -9 14 -8 25 1 12 -3 19 -11 17 -8 -1 -11 2 -7 8 4 6 -3
37 -14 70 -12 33 -21 64 -21 70 0 5 -11 33 -24 62 -24 55 -40 108 -31 108 2 0
23 -7 45 -16 22 -9 49 -14 60 -11 11 3 20 2 20 -2 0 -11 94 -31 143 -31 57 0
117 18 117 34 0 38 86 15 143 -38 15 -14 32 -26 37 -26 5 0 13 -6 17 -13 4 -8
24 -24 43 -38 19 -13 39 -30 43 -36 4 -7 14 -13 21 -13 8 0 28 -13 46 -30 18
-16 36 -30 41 -30 5 0 16 -11 25 -25 9 -14 23 -25 30 -25 8 0 14 -4 14 -9 0
-5 9 -12 19 -16 11 -3 34 -19 53 -35 47 -42 69 -37 24 5 -21 19 -42 35 -47 35
-5 0 -9 6 -9 13 0 19 -30 43 -62 51 -16 3 -28 13 -28 22 0 8 -7 17 -15 20 -8
4 -15 12 -15 20 0 17 5 17 29 4 32 -17 73 -21 221 -21 86 0 150 -5 157 -11 7
-6 13 -8 13 -5 0 3 20 -14 43 -37 46 -43 117 -137 117 -153 0 -5 15 -24 34
-41 19 -17 36 -36 38 -43 3 -9 16 -6 45 11 31 17 51 22 81 17 35 -4 44 -1 75
28 19 18 37 39 39 46 4 11 23 11 114 1 96 -10 112 -15 131 -36 19 -22 27 -25
70 -19 33 3 65 0 98 -11 77 -27 154 -30 580 -27 220 1 492 2 605 2 113 0 237
4 275 9 69 9 197 25 285 35 130 14 179 23 195 35 6 4 39 13 74 19 35 7 77 22
93 34 23 17 43 22 91 21 116 -2 157 -24 157 -83 0 -30 4 -37 21 -38 11 -1 23
5 26 13 3 8 17 21 32 28 32 17 144 46 176 46 13 0 27 5 31 11 13 22 25 -8 14
-37 -8 -21 -8 -30 0 -32 7 -3 5 -8 -5 -16 -9 -6 -17 -23 -19 -37 -1 -13 -5
-29 -8 -34 -3 -6 -9 -31 -13 -57 -4 -26 -13 -53 -21 -59 -8 -6 -14 -21 -14
-33 0 -12 -4 -26 -8 -31 -9 -12 -31 -74 -37 -107 -11 -57 -24 -67 -81 -61 -49
5 -56 3 -89 -26 -20 -17 -39 -31 -44 -31 -4 0 -23 -14 -42 -31 -19 -16 -45
-40 -59 -52 -14 -12 -47 -33 -75 -47 -27 -14 -55 -31 -61 -39 -10 -12 -15 -11
-39 7 -15 12 -36 22 -46 22 -23 0 -52 -29 -45 -46 3 -7 1 -16 -4 -19 -6 -4
-10 -13 -10 -22 0 -8 -18 -33 -40 -55 l-41 -39 -10 31 c-13 35 -11 34 -109 16
-41 -8 -101 -17 -132 -20 -34 -2 -65 -11 -74 -20 -23 -24 -44 -20 -44 8 0 18
8 27 31 35 21 7 29 16 27 28 -4 20 -28 21 -113 5 -36 -7 -52 -6 -57 2 -11 17
-9 105 2 127 15 28 -14 55 -70 65 -25 4 -48 7 -51 6 -27 -6 -109 -2 -183 8
-109 15 -116 10 -123 -83 l-6 -65 -31 10 c-17 5 -40 14 -51 18 -11 5 -40 12
-65 16 -25 3 -51 11 -58 17 -9 7 -16 7 -23 0 -7 -7 -26 -5 -61 8 -63 23 -143
36 -135 22 4 -6 33 -21 64 -33 32 -12 74 -29 93 -38 19 -8 46 -17 60 -18 63
-6 275 -71 300 -92 29 -23 32 -74 5 -77 -11 -1 -36 -5 -55 -8 -19 -4 -53 -9
-75 -12 -22 -3 -68 -16 -102 -28 -50 -17 -62 -26 -67 -47 -3 -14 1 -29 8 -35
7 -5 13 -17 14 -25 0 -8 18 -78 39 -155 44 -161 34 -154 163 -109 69 24 134
31 144 16 2 -4 7 -23 10 -42 6 -32 3 -37 -28 -57 -47 -29 -203 -86 -216 -78
-5 3 -10 13 -10 21 0 17 -57 54 -84 54 -15 0 -128 -23 -172 -35 -7 -2 -9 -15
-7 -29 5 -22 9 -25 27 -20 28 9 59 14 129 21 53 5 59 4 55 -12 -2 -11 -29 -28
-73 -46 -84 -34 -105 -36 -112 -9 -7 27 -25 25 -21 -2 2 -17 -2 -23 -17 -23
-15 0 -22 11 -31 50 -20 86 -14 82 -105 73 -45 -4 -85 -6 -89 -3 -4 3 -10 17
-13 32 -15 76 -25 110 -35 130 -7 12 -12 33 -12 47 0 15 -11 36 -27 51 -31 28
-53 32 -53 10 0 -8 3 -15 8 -15 12 0 42 -60 42 -86 0 -13 11 -52 25 -86 14
-34 25 -73 25 -88 0 -42 22 -64 56 -57 112 25 127 27 140 16 16 -13 19 -75 5
-84 -23 -14 -254 -3 -337 15 -25 6 -57 10 -72 11 -98 1 -121 9 -141 54 -34 77
-73 219 -65 239 3 8 -1 23 -10 31 -8 9 -21 24 -28 33 -22 30 -88 63 -116 58
-15 -2 -35 -5 -44 -5 -10 -1 -18 -8 -18 -16 0 -8 8 -14 18 -13 44 3 63 -5 106
-44 31 -30 47 -54 52 -78 3 -19 8 -42 11 -50 4 -8 7 -19 7 -25 1 -5 10 -28 20
-50 10 -22 20 -57 23 -79 l6 -38 -54 7 c-30 4 -58 11 -63 16 -15 14 -63 11
-69 -5 -6 -16 54 -29 91 -20 12 4 22 2 22 -4 0 -6 10 -10 23 -9 12 0 47 -2 77
-7 208 -29 270 -38 305 -47 22 -6 49 -11 60 -13 11 -2 22 -5 25 -6 25 -15 153
-11 218 5 34 9 66 14 71 10 5 -3 12 -1 16 5 3 5 16 10 29 10 12 0 31 7 42 15
10 8 30 15 44 15 33 1 104 27 108 39 2 5 9 8 16 5 7 -3 26 2 42 11 16 8 37 15
47 15 11 0 32 9 47 20 16 11 46 27 67 34 35 12 188 86 223 107 8 5 31 16 50
24 62 27 183 89 215 110 16 12 37 24 46 27 9 3 48 27 88 52 40 26 76 44 82 41
5 -4 25 3 45 15 l35 22 77 -79 c73 -76 138 -128 245 -195 l48 -30 -47 -24
c-26 -13 -55 -30 -63 -38 -9 -8 -32 -21 -51 -30 -38 -17 -137 -71 -154 -85 -6
-4 -36 -21 -66 -37 -30 -16 -59 -33 -65 -37 -27 -22 -165 -94 -204 -107 -24
-7 -53 -21 -65 -30 -11 -9 -43 -25 -71 -35 -27 -11 -52 -22 -55 -26 -8 -10
-83 -46 -112 -53 -16 -3 -28 -11 -28 -16 0 -6 -5 -10 -11 -10 -7 0 -57 -22
-113 -49 -233 -112 -271 -127 -308 -122 -12 2 -18 -5 -18 -18 0 -18 -3 -19
-24 -10 -17 8 -33 8 -53 2 -41 -14 -149 -9 -213 10 -30 9 -73 19 -95 23 -22 3
-58 12 -80 21 -22 8 -49 15 -59 14 -11 0 -27 4 -36 9 -10 5 -66 16 -126 25
-60 8 -152 27 -205 40 -53 14 -111 25 -130 25 -19 0 -61 7 -94 14 -45 11 -62
12 -67 3 -6 -9 -8 -9 -8 -1 0 14 -41 31 -90 38 -55 8 -130 25 -140 31 -5 3
-23 8 -39 10 -16 2 -53 10 -82 19 -95 28 -173 47 -213 51 -22 3 -43 10 -46 16
-4 6 -9 10 -11 9 -2 -1 -11 1 -19 3 -8 3 -49 13 -90 22 -41 10 -79 21 -85 25
-16 12 -140 60 -156 60 -8 0 -23 6 -34 14 -11 7 -40 17 -64 21 -38 6 -133 50
-167 77 -9 7 -47 88 -78 168 -6 14 -22 42 -39 64 -8 11 -32 57 -94 179 -19 37
-39 67 -44 67 -5 0 -12 18 -15 41 -4 22 -12 46 -18 52 -11 11 -25 39 -65 127
-6 14 -22 45 -36 70 -13 25 -25 55 -25 67 0 12 -6 28 -13 35 -11 12 -39 67
-173 341 -26 53 -53 102 -61 108 -7 6 -13 20 -13 30 0 10 -13 40 -29 67 -16
27 -32 60 -36 73 -7 22 -45 108 -100 224 -13 28 -33 77 -45 110 -12 33 -27 74
-35 90 -7 17 -20 51 -30 78 -9 26 -22 53 -29 60 -6 6 -18 32 -25 57 -7 25 -28
79 -48 120 -19 41 -40 86 -45 100 -6 14 -16 39 -23 55 -7 17 -21 53 -31 80 -9
28 -26 65 -36 83 -10 18 -18 38 -18 45 0 7 -7 25 -15 40 -8 15 -19 42 -24 60
-10 32 -57 164 -106 292 -14 38 -30 72 -34 75 -5 3 -11 16 -15 30 -11 39 -49
127 -92 213 -8 16 -14 36 -14 45 0 8 -6 23 -14 31 -7 9 -18 39 -25 66 -6 28
-24 84 -40 125 -62 164 -75 208 -129 440 -3 14 -6 82 -7 152 -1 69 -5 133 -8
140 -3 8 3 48 13 89 10 42 21 109 24 150 4 41 11 110 16 154 5 44 12 103 14
130 6 51 22 154 31 190 7 25 21 129 30 215 4 36 11 72 15 80 9 18 27 121 35
205 11 108 25 220 30 245 3 14 8 41 11 60 3 19 7 50 10 68 5 35 24 45 24 12z
m-85 -44 c-4 -17 -8 -62 -9 -99 -2 -60 -5 -71 -26 -89 -17 -13 -21 -21 -12
-25 6 -2 12 -21 12 -40 0 -34 -1 -35 -32 -29 -18 3 -53 9 -76 12 -42 7 -44 6
-40 -17 2 -18 8 -23 25 -21 12 2 24 -2 28 -8 3 -5 21 -10 39 -10 17 0 36 -4
42 -10 9 -9 -2 -107 -32 -282 -8 -44 -30 -50 -59 -18 -10 11 -24 20 -32 20 -7
0 -13 5 -13 10 0 6 -5 10 -11 10 -20 0 -133 80 -160 113 -51 63 -61 93 -61
196 0 66 6 115 19 156 19 60 19 60 53 56 37 -5 51 -4 115 3 117 12 126 16 174
64 25 26 50 46 55 44 4 -3 5 -19 1 -36z m2483 -118 c6 -6 57 -13 124 -15 62
-2 138 -10 168 -17 30 -7 82 -11 115 -10 73 2 186 -13 199 -26 7 -7 5 -10 -3
-10 -7 0 -11 -5 -9 -12 3 -7 29 -13 65 -15 47 -2 62 0 67 12 4 12 -5 15 -52
17 l-57 2 50 3 c28 2 62 -1 75 -6 19 -7 20 -10 7 -10 -31 -1 -8 -21 25 -21 23
0 29 4 24 15 -3 8 -1 15 4 15 6 0 10 -4 10 -9 0 -5 14 -11 30 -13 17 -3 30 -1
30 4 0 4 -12 9 -27 9 l-28 2 28 4 c19 3 33 -1 41 -12 9 -13 30 -18 74 -20 34
-1 62 1 62 5 0 4 -30 11 -67 17 l-68 10 68 1 c62 2 68 0 77 -20 5 -13 9 -18
10 -13 0 6 4 5 8 -1 5 -9 11 -8 20 2 11 12 9 14 -8 14 -11 0 -20 5 -20 11 0 6
11 8 28 5 15 -3 50 -8 79 -11 30 -4 54 -12 57 -21 3 -8 12 -11 22 -7 16 6 16
7 -2 15 -11 4 8 6 46 3 36 -3 119 -7 184 -10 92 -4 124 -9 138 -22 17 -15 18
-15 18 0 0 10 4 17 10 17 6 0 7 -18 3 -45 l-6 -45 32 0 c17 0 31 -5 31 -11 0
-6 12 -24 28 -39 47 -50 53 -60 50 -77 -2 -13 -22 1 -76 53 -41 39 -79 81 -85
94 -7 13 -22 29 -34 38 -20 13 -23 13 -29 -1 -3 -10 16 -37 55 -76 34 -34 61
-66 61 -71 0 -5 6 -13 14 -17 9 -5 12 -18 9 -35 -6 -33 -23 -37 -30 -8 -6 21
-18 26 -93 34 -68 8 -351 33 -380 33 -14 1 -62 3 -107 6 -68 5 -83 3 -83 -9 0
-8 -4 -14 -10 -14 -5 0 -7 6 -4 14 4 10 -13 15 -68 22 -57 6 -65 9 -35 12 20
2 37 7 37 12 0 14 -90 17 -102 3 -15 -18 -65 -16 -72 2 -3 8 -10 15 -15 15 -6
0 -8 -6 -5 -14 3 -8 1 -17 -4 -20 -5 -3 -12 3 -15 13 -4 17 -19 20 -123 26
-66 3 -175 11 -244 17 -69 6 -142 10 -164 9 -21 -1 -44 3 -51 9 -10 8 -15 8
-20 0 -7 -11 -85 62 -85 80 0 6 -7 13 -15 16 -8 4 -15 12 -15 20 0 20 31 17
36 -4 3 -9 16 -22 30 -29 21 -10 24 -9 24 10 1 19 2 20 13 7 8 -10 29 -15 58
-15 34 1 45 -2 42 -12 -6 -15 -2 -16 21 -7 9 3 16 15 16 25 0 16 -6 18 -46 14
-38 -4 -45 -2 -40 10 3 8 1 17 -5 20 -5 4 -12 -1 -15 -10 -6 -14 -9 -14 -29
-1 -16 10 -25 12 -33 4 -12 -12 -35 -1 -27 13 3 5 -1 6 -9 3 -11 -4 -19 2 -25
17 -7 17 -10 19 -10 7 -2 -38 -40 -28 -41 11 0 11 3 11 15 1 12 -10 15 -10 15
4 0 19 21 21 38 4z m8716 -96 c3 -5 20 -7 38 -5 l33 3 -31 -10 c-24 -8 -39 -6
-60 5 -26 13 -27 15 -7 15 12 0 24 -4 27 -8z m-7034 -76 c0 -7 12 -19 26 -26
14 -8 32 -27 40 -42 8 -15 19 -28 24 -28 12 0 40 -29 40 -42 0 -6 -16 2 -35
16 -53 41 -135 127 -130 137 8 11 35 -1 35 -15z m-1226 -82 c25 -4 46 -10 46
-13 0 -9 -107 3 -116 12 -9 9 10 9 70 1z m-2798 -22 c6 -4 13 -14 17 -24 7
-20 84 -38 189 -45 74 -5 79 -7 133 -53 31 -26 66 -60 78 -76 12 -16 37 -45
55 -64 18 -19 30 -40 28 -47 -3 -7 -1 -15 4 -18 6 -4 10 -18 10 -33 0 -22 2
-24 11 -12 8 12 9 10 4 -8 -11 -37 31 -69 193 -147 l53 -25 -21 -30 c-12 -17
-25 -30 -30 -30 -14 0 -100 -89 -100 -103 0 -7 -16 -30 -36 -51 -38 -40 -69
-101 -59 -116 3 -6 -5 -22 -19 -37 -15 -15 -26 -32 -27 -38 -3 -42 -8 -57 -21
-72 -8 -10 -30 -56 -48 -101 -18 -46 -39 -89 -46 -96 -7 -7 -17 -31 -23 -54
-7 -23 -16 -44 -21 -47 -5 -3 -19 -27 -32 -53 -12 -26 -31 -60 -41 -75 -17
-25 -37 -60 -103 -184 -10 -18 -20 -33 -23 -33 -13 0 -75 141 -86 195 -9 48
-57 199 -66 211 -5 6 -20 46 -34 90 -15 43 -35 97 -46 120 -31 65 -28 117 9
163 18 22 32 44 32 49 0 4 21 40 48 78 26 38 54 83 62 99 8 17 23 42 33 57 10
16 15 32 12 38 -8 13 -45 13 -45 -1 0 -6 -21 -47 -48 -92 -26 -45 -53 -93 -60
-107 -7 -14 -26 -41 -42 -60 l-29 -35 4 88 c3 49 7 93 10 97 3 5 7 51 9 103 3
52 8 111 11 131 7 34 9 36 24 21 10 -8 23 -15 29 -15 7 0 12 -4 12 -10 0 -5 6
-10 14 -10 7 0 25 -11 40 -25 15 -14 31 -25 37 -25 5 0 9 -9 9 -21 0 -17 5
-20 33 -17 28 3 32 6 32 33 -1 26 -8 34 -55 59 -30 15 -80 45 -110 65 -52 36
-55 40 -54 77 2 39 9 85 24 159 5 22 14 68 22 103 12 60 21 70 44 54z m7200
-39 c18 -16 34 -33 34 -39 0 -6 13 -29 29 -51 16 -22 41 -67 57 -99 32 -70 96
-154 130 -172 13 -7 24 -10 24 -7 0 4 13 -3 29 -14 16 -12 32 -21 35 -21 15 0
46 -37 46 -55 0 -11 14 -47 30 -79 17 -32 30 -66 30 -75 0 -10 4 -21 9 -26 11
-13 30 -68 46 -135 14 -63 36 -122 48 -131 4 -3 9 -19 11 -35 2 -16 13 -60 24
-99 47 -168 72 -264 83 -320 7 -33 15 -64 19 -70 7 -11 26 -74 35 -120 4 -16
13 -43 20 -60 7 -16 16 -43 20 -60 9 -45 26 -128 29 -145 1 -8 5 -22 8 -30 26
-66 58 -176 64 -221 4 -30 13 -69 20 -87 8 -19 19 -64 25 -100 6 -37 22 -95
35 -130 21 -56 30 -97 49 -212 3 -19 17 -67 30 -107 14 -39 25 -80 25 -90 0
-10 7 -38 16 -63 9 -25 18 -52 20 -60 2 -8 12 -51 23 -95 11 -44 29 -114 41
-155 12 -41 30 -106 40 -145 10 -38 22 -81 27 -95 6 -14 11 -52 12 -85 l1 -60
-51 -23 c-41 -17 -55 -19 -66 -10 -15 12 -53 85 -53 101 0 12 -32 80 -40 87
-4 3 -9 11 -11 19 -3 7 -22 19 -44 27 -33 11 -42 11 -55 0 -8 -7 -22 -14 -30
-14 -26 -1 -104 -23 -115 -32 -5 -4 -48 -18 -95 -30 -102 -25 -99 -24 -130
-37 -14 -6 -54 -20 -90 -33 -36 -12 -69 -26 -74 -31 -6 -5 -17 -9 -25 -9 -8 0
-22 -6 -30 -14 -9 -7 -41 -18 -71 -25 -30 -6 -84 -18 -120 -27 -36 -8 -90 -20
-120 -25 -30 -5 -64 -13 -75 -18 -33 -13 -126 -42 -200 -63 -70 -18 -108 -34
-133 -52 -29 -21 -113 -5 -192 35 -43 22 -86 49 -95 59 -23 26 -119 53 -156
45 -16 -4 -36 -17 -45 -30 -8 -12 -61 -46 -118 -74 -106 -53 -122 -58 -111
-41 4 6 11 57 16 113 5 56 19 154 30 217 11 63 22 132 24 152 2 21 6 41 8 45
3 5 8 43 11 85 3 42 10 87 15 100 9 24 26 128 23 140 -1 4 2 18 7 30 5 13 18
93 30 178 12 85 29 189 37 230 8 41 20 122 28 180 8 58 26 168 40 245 38 213
69 423 72 495 1 36 9 99 18 140 31 155 47 226 56 255 5 17 12 53 15 80 7 57
42 210 55 240 4 11 20 56 35 100 15 44 31 89 35 100 4 11 16 47 26 80 9 33 25
77 34 98 l17 37 27 -21 c15 -12 39 -21 53 -21 30 0 69 43 79 87 3 17 10 35 15
40 4 6 10 26 13 45 2 19 8 52 12 73 8 45 -18 102 -50 112 -19 6 -18 7 9 17 16
6 38 19 48 29 11 10 41 23 68 29 27 7 52 16 55 21 3 5 15 9 27 9 12 1 33 7 47
15 35 20 47 19 86 -12z m-3311 -52 c19 -4 25 -10 18 -14 -17 -10 -59 2 -75 21
-11 14 -10 15 7 8 11 -5 33 -11 50 -15z m2963 -115 c11 -7 3 -107 -9 -120 -5
-6 -9 -18 -9 -28 0 -30 -41 -98 -59 -98 -9 0 -24 7 -34 15 -15 11 -17 21 -12
47 4 18 11 38 16 44 10 12 5 106 -6 124 -12 20 6 28 54 25 27 -2 54 -5 59 -9z
m-243 -68 c-3 -35 -10 -64 -15 -66 -6 -2 -10 -12 -10 -22 0 -28 -32 -62 -52
-55 -13 5 -14 13 -8 36 5 17 6 37 3 45 -3 8 -1 14 5 14 5 0 12 18 16 39 6 42
28 71 52 71 11 0 13 -13 9 -62z m-61 -215 c-4 -16 -13 -40 -20 -55 -8 -15 -14
-36 -14 -47 0 -43 -46 -161 -63 -161 -6 0 -5 5 1 13 5 6 8 28 7 47 -2 20 5 51
16 72 10 20 19 48 19 60 0 49 20 98 41 98 16 0 18 -5 13 -27z m-94 -730 c-17
-92 -43 -193 -56 -223 -16 -38 -25 -83 -29 -145 -3 -49 -8 -104 -11 -122 -4
-18 -7 -49 -9 -70 -1 -21 -10 -76 -19 -123 -8 -47 -16 -99 -16 -116 0 -16 -9
-64 -19 -105 -11 -41 -22 -87 -24 -104 -3 -16 -8 -37 -11 -45 -8 -22 -36 -302
-30 -311 2 -4 0 -10 -4 -13 -5 -3 -15 -47 -21 -98 -7 -51 -17 -104 -21 -118
-5 -14 -11 -56 -15 -95 -5 -64 -20 -156 -46 -275 -5 -25 -21 -133 -35 -240
-14 -107 -30 -226 -35 -265 -17 -118 -27 -227 -25 -272 0 -24 -1 -43 -4 -43
-3 0 -7 -31 -8 -70 -2 -38 -8 -84 -13 -102 -6 -21 -6 -34 1 -36 6 -2 4 -10 -4
-18 -8 -7 -17 -37 -21 -66 -4 -29 -18 -99 -31 -156 -14 -56 -23 -106 -19 -111
3 -5 1 -12 -5 -16 -6 -3 -10 -47 -10 -100 0 -51 -3 -100 -6 -108 -4 -11 -27 6
-86 64 -44 43 -89 79 -99 79 -11 0 -19 7 -19 15 0 8 -7 15 -16 15 -8 0 -28 12
-43 28 -15 15 -40 34 -55 42 -25 13 -27 18 -21 56 3 22 15 64 25 93 11 28 20
60 20 71 0 11 6 29 13 40 10 17 9 22 -3 30 -10 6 -11 10 -3 10 21 0 51 71 68
161 9 46 23 98 30 114 7 17 21 62 30 100 10 39 30 113 46 165 15 52 36 140 46
195 9 55 21 102 25 103 4 2 8 14 8 26 0 13 4 36 9 52 5 16 17 74 26 129 9 55
21 117 26 138 6 21 18 86 28 145 10 59 26 134 35 167 10 33 15 68 12 77 -2 10
0 20 4 23 5 3 11 24 15 48 4 23 16 76 27 117 11 41 21 84 23 95 1 11 3 20 4
20 2 0 11 36 20 80 10 44 27 114 39 155 24 88 36 150 33 167 -1 6 3 14 9 18 5
3 10 16 10 29 0 12 11 51 25 86 14 35 23 66 20 68 -3 3 -1 10 3 16 5 6 14 38
21 71 7 33 31 122 53 198 22 76 43 162 45 190 11 117 50 213 95 234 13 6 25 9
27 7 2 -2 -11 -79 -29 -171z m-3301 -512 c-14 -4 -15 -2 -23 44 l-6 40 19 -40
c11 -23 15 -42 10 -44z m-3193 -606 c45 -96 114 -262 114 -273 0 -9 31 -92 51
-137 11 -24 55 -143 77 -205 8 -25 18 -47 21 -50 10 -8 51 -96 51 -109 0 -6 4
-19 8 -29 37 -75 52 -111 58 -137 4 -16 18 -50 32 -75 13 -25 31 -62 38 -82
l13 -38 -32 0 c-18 1 -75 5 -127 11 -94 9 -143 16 -270 38 -36 6 -87 14 -115
17 -61 6 -220 39 -256 52 -15 6 -60 14 -100 18 -42 3 -81 13 -91 21 -10 9 -26
13 -38 10 -11 -3 -20 -1 -20 4 0 5 4 9 9 9 5 0 12 13 16 29 3 16 19 53 34 83
16 30 32 69 36 86 3 18 11 32 16 32 5 0 9 7 9 15 0 8 9 31 20 50 11 20 18 40
15 46 -4 5 -2 9 3 9 6 0 13 15 16 34 4 19 13 39 21 46 8 7 15 19 15 26 0 7 11
38 25 69 13 30 25 59 26 63 1 4 11 27 22 52 10 25 35 81 54 125 18 44 49 112
67 150 18 39 48 102 67 142 l34 71 24 -51 c13 -29 39 -83 57 -122z m3274 -803
c0 -5 7 -15 15 -22 20 -17 20 -52 -1 -48 -8 2 -26 30 -40 63 -30 74 -30 76 1
43 14 -15 25 -31 25 -36z m2298 -1421 c19 -14 45 -33 60 -41 28 -16 45 -28 67
-47 7 -7 19 -13 25 -13 6 0 27 -15 47 -32 20 -18 48 -43 62 -55 47 -41 63 -58
94 -103 17 -25 44 -57 59 -72 57 -56 24 -142 -60 -158 -23 -4 -42 -6 -42 -4 0
14 15 34 25 34 13 0 25 30 25 62 0 26 -218 234 -327 311 -46 34 -54 36 -60 21
-4 -11 2 -23 18 -36 31 -25 256 -245 285 -279 l22 -25 -18 -55 c-10 -29 -19
-50 -19 -46 -1 9 -91 -84 -91 -94 0 -6 -45 -27 -70 -33 -40 -10 -100 -29 -100
-32 0 -2 7 -12 16 -23 13 -15 22 -17 47 -10 36 10 41 7 32 -19 -7 -23 -80 -52
-132 -52 -35 0 -183 66 -183 81 0 5 -7 9 -15 9 -8 0 -30 14 -48 30 -19 17 -39
30 -44 30 -5 0 -36 20 -69 45 -32 24 -65 45 -71 45 -7 0 -20 12 -30 28 -24 36
-39 52 -52 52 -6 0 -11 7 -11 15 0 8 -4 15 -9 15 -5 0 -23 11 -39 25 -19 16
-33 21 -37 15 -3 -6 -10 -8 -15 -5 -21 13 80 164 110 165 13 0 134 72 165 98
6 4 36 21 68 36 32 16 63 36 70 46 7 9 26 24 42 32 17 9 39 26 50 38 41 46 96
46 153 1z m-1339 -55 c74 -3 138 -9 143 -14 5 -5 8 -40 6 -78 l-3 -69 -68 2
c-37 1 -93 9 -125 19 -31 9 -73 20 -92 23 -30 5 -35 10 -37 36 -3 58 6 93 25
90 9 -2 77 -6 151 -9z m35 -223 c68 -16 128 -13 213 12 19 6 22 2 28 -40 9
-56 26 -65 66 -36 22 16 52 24 129 31 55 5 110 15 121 21 31 16 49 5 42 -28
-3 -15 -6 -49 -6 -75 -1 -27 -5 -48 -9 -48 -5 0 -35 -17 -66 -39 -31 -21 -72
-47 -91 -57 -19 -10 -55 -31 -80 -45 -25 -15 -62 -35 -81 -44 -19 -9 -60 -29
-90 -45 -30 -15 -72 -33 -92 -40 -21 -6 -38 -16 -38 -21 0 -5 -6 -9 -14 -9 -7
0 -19 -7 -26 -15 -30 -36 -63 -2 -39 41 11 22 11 27 -1 34 -12 8 -66 15 -91
12 -4 -1 -22 -3 -41 -5 -18 -2 -39 -6 -45 -10 -7 -4 -41 -10 -76 -14 l-64 -6
-18 94 c-9 52 -24 111 -33 132 -14 36 -13 39 7 61 24 25 123 46 216 46 37 0
45 3 45 19 0 10 7 21 14 24 11 4 13 16 9 43 -6 35 -5 37 18 31 13 -4 55 -14
93 -24z m1137 -537 c11 -22 6 -31 -52 -96 l-64 -71 -20 24 c-11 13 -32 32 -47
42 -16 9 -28 22 -28 29 0 12 155 93 183 95 10 0 22 -10 28 -23z m-453 -223
c-1 -10 2 -28 6 -39 6 -20 2 -23 -41 -32 -77 -17 -186 -24 -178 -12 3 5 14 10
23 11 9 0 53 20 97 44 93 50 94 51 93 28z m-2673 -183 c3 -5 22 -10 41 -10 41
0 125 -19 139 -31 5 -5 17 -9 27 -9 11 0 48 -9 84 -21 47 -15 64 -25 60 -35
-3 -8 1 -49 9 -92 8 -42 15 -91 15 -108 0 -51 16 -57 122 -45 51 6 107 13 123
16 17 2 56 7 88 11 31 3 60 11 64 17 3 5 7 34 8 63 1 30 4 57 8 60 3 3 21 1
40 -5 19 -6 47 -13 63 -16 68 -10 181 -33 203 -42 26 -10 25 -5 36 -210 l6
-123 -25 0 c-14 0 -27 -4 -30 -9 -7 -10 -107 -22 -209 -24 -52 -2 -80 -6 -86
-15 -4 -7 -21 -21 -37 -30 -25 -15 -70 -17 -346 -20 -300 -2 -318 -1 -327 16
-21 40 -52 172 -65 282 -16 131 -15 119 -22 225 -3 44 -9 94 -13 110 -11 44 5
75 24 45z m505 -114 c36 -9 98 -21 138 -28 l72 -13 0 -57 c0 -39 -4 -58 -12
-59 -7 0 -24 -2 -38 -5 -14 -2 -64 -8 -112 -13 -48 -6 -96 -15 -107 -21 -25
-13 -26 -9 -30 70 -2 36 -5 69 -8 73 -2 4 -7 24 -9 44 -4 33 -3 35 18 30 13
-3 52 -13 88 -21z m1310 -108 c0 -28 -36 -161 -50 -185 -20 -35 -65 -170 -63
-190 1 -17 1 -17 -93 8 -48 12 -100 19 -134 17 l-55 -3 3 37 c1 20 9 50 17 65
8 15 15 37 15 48 0 11 9 31 19 44 10 14 17 30 14 37 -3 7 9 15 28 19 18 4 46
16 63 26 17 11 50 19 73 19 23 0 48 6 55 13 18 18 108 55 108 45z"/>
<path d="M3690 4321 c0 -17 4 -39 10 -49 23 -41 60 -143 60 -166 0 -14 4 -28
10 -31 12 -7 50 -92 50 -111 0 -8 4 -22 9 -32 14 -24 57 -120 75 -164 8 -21
20 -38 26 -38 7 0 9 -8 5 -20 -3 -11 -3 -20 2 -20 5 0 17 -22 28 -50 11 -27
23 -50 27 -50 4 0 8 -8 8 -17 0 -9 20 -42 44 -72 23 -31 51 -81 61 -111 22
-67 62 -130 83 -130 8 0 12 -3 9 -6 -4 -4 2 -19 13 -34 11 -16 20 -31 20 -35
0 -4 14 -24 31 -44 17 -20 45 -53 62 -75 53 -63 71 -80 74 -69 2 5 -18 32 -44
58 -28 29 -42 50 -35 53 7 2 10 7 8 11 -3 4 19 -1 49 -11 29 -9 74 -19 99 -21
25 -1 48 -6 52 -10 4 -4 26 -7 49 -7 23 0 77 -10 121 -21 43 -12 88 -23 99
-25 28 -5 256 -53 280 -60 77 -20 184 -30 171 -16 -4 4 -11 7 -14 7 -4 1 -24
4 -44 8 -32 7 -38 12 -39 35 -5 74 -19 153 -35 184 -8 15 -14 41 -14 58 0 20
-5 30 -15 30 -23 0 -29 -26 -11 -52 9 -12 16 -31 16 -42 0 -11 5 -36 11 -55 6
-20 14 -48 19 -63 4 -15 6 -37 3 -49 -5 -19 -11 -20 -52 -15 -25 3 -73 12
-106 21 -33 9 -104 26 -157 37 -64 13 -98 25 -98 34 0 29 -22 114 -30 114 -4
0 -5 -15 -1 -32 12 -53 7 -94 -9 -89 -18 5 -111 25 -205 46 -38 8 -89 16 -112
17 -24 1 -43 6 -43 12 0 10 -6 18 -64 79 -41 44 -96 137 -96 161 0 10 -4 15
-9 12 -5 -4 -7 3 -4 13 3 14 -8 36 -36 69 -23 26 -41 52 -41 56 0 4 -11 22
-25 40 -14 18 -25 37 -25 41 0 17 -44 105 -52 105 -4 0 -8 9 -8 20 0 22 -48
127 -61 136 -5 3 -7 10 -3 15 3 5 -6 30 -20 55 -14 26 -26 53 -26 60 0 8 -4
14 -9 14 -5 0 -12 15 -16 33 -3 17 -17 59 -30 92 -13 33 -34 89 -47 124 -26
72 -48 91 -48 42z"/>
<path d="M5230 3766 c-30 -5 -87 -9 -127 -8 -65 1 -73 -1 -79 -20 -5 -17 1
-28 27 -49 l33 -27 -59 -5 c-76 -7 -97 -11 -115 -22 -21 -13 -86 -24 -223 -40
-61 -7 -69 -10 -82 -36 -18 -34 -19 -71 -3 -87 20 -20 26 -14 24 31 -1 40 0
42 29 44 25 1 199 33 270 49 54 12 145 19 164 12 22 -8 81 0 81 11 0 3 -5 13
-10 21 -9 13 -10 13 -11 0 -1 -8 -4 -1 -8 15 -3 17 -12 30 -19 30 -6 0 -11 5
-9 10 1 6 5 9 9 8 3 -1 37 4 74 12 38 8 78 12 89 10 77 -17 252 -34 276 -28
19 5 109 -33 121 -51 4 -6 8 -32 8 -57 0 -49 31 -181 48 -202 5 -6 13 -27 17
-45 5 -25 16 -37 48 -54 l41 -21 -27 36 c-15 20 -27 41 -27 46 0 6 -4 19 -9
29 -11 21 -41 152 -41 180 0 12 -5 24 -11 28 -6 4 -9 19 -5 36 9 44 -27 104
-68 113 -36 7 -110 14 -216 19 -41 2 -82 6 -90 9 -31 11 -67 12 -120 3z"/>
<path d="M4645 3368 c2 -7 6 -31 9 -53 6 -60 17 -105 27 -105 10 0 0 89 -12
112 -5 9 -9 26 -9 37 0 12 -4 21 -10 21 -5 0 -7 -6 -5 -12z"/>
<path d="M5295 2930 c-8 -13 40 -24 62 -15 16 7 15 9 -7 15 -36 11 -48 11 -55
0z"/>
<path d="M4520 2850 c0 -5 5 -10 12 -10 6 0 8 -3 5 -6 -9 -10 70 -64 93 -64
22 0 8 17 -24 28 -19 7 -41 24 -50 37 -17 25 -36 33 -36 15z"/>
<path d="M5000 8536 c0 -13 12 -16 65 -17 36 -1 79 -2 95 -3 17 0 30 3 30 9 0
5 -17 11 -37 11 -21 1 -64 5 -95 9 -50 7 -58 6 -58 -9z"/>
<path d="M6285 8402 c6 -5 39 -12 75 -16 36 -3 98 -9 138 -14 40 -4 75 -5 78
-1 8 13 -13 19 -73 24 -32 2 -96 7 -143 10 -55 4 -81 3 -75 -3z"/>
<path d="M8007 3699 c-32 -26 -37 -36 -32 -58 5 -24 0 -31 -45 -60 -27 -18
-50 -37 -50 -42 0 -5 -9 -9 -20 -9 -11 0 -20 5 -20 10 0 6 -9 10 -19 10 -11 0
-23 -4 -26 -10 -3 -5 -14 -10 -24 -10 -9 0 -26 -6 -36 -14 -17 -12 -18 -18 -7
-40 6 -14 18 -26 26 -26 7 0 16 -9 19 -20 3 -11 13 -23 24 -27 10 -4 26 -17
36 -30 11 -13 33 -30 51 -37 31 -13 42 -22 131 -105 53 -49 105 -85 112 -77 9
9 -43 61 -104 103 -29 20 -53 42 -53 49 0 8 -12 21 -27 31 -30 18 -66 45 -126
95 l-37 31 42 21 c24 12 45 24 48 27 3 3 22 12 44 20 21 8 41 20 43 26 3 7 23
23 44 35 21 12 39 28 39 35 0 7 6 13 14 13 17 0 40 54 32 75 -9 24 -38 18 -79
-16z"/>
<path d="M4883 9598 c-2 -5 1 -9 6 -9 14 -2 17 -3 66 -17 57 -17 75 -15 75 7
0 17 -9 20 -71 23 -39 2 -73 0 -76 -4z"/>
<path d="M3534 9586 c-16 -6 -41 -18 -55 -27 -13 -9 -40 -20 -59 -24 -19 -4
-46 -15 -60 -24 -14 -9 -37 -23 -52 -31 -16 -7 -28 -17 -28 -21 0 -9 28 2 110
43 30 15 70 31 90 34 19 4 41 12 49 18 8 6 30 19 50 28 32 15 33 17 11 16 -14
0 -39 -5 -56 -12z"/>
<path d="M6025 9320 c3 -5 17 -10 31 -10 13 0 24 5 24 10 0 6 -14 10 -31 10
-17 0 -28 -4 -24 -10z"/>
<path d="M6214 9261 c47 -25 117 -40 100 -21 -11 11 -54 25 -114 36 -18 4 -14
-1 14 -15z"/>
<path d="M6335 9230 c-7 -12 3 -17 50 -25 40 -7 127 -31 155 -44 8 -4 29 -4
45 -1 l30 7 -26 10 c-14 6 -65 18 -113 27 -48 9 -98 21 -111 26 -14 5 -27 6
-30 0z"/>
<path d="M8297 9232 c-20 -2 -35 -7 -32 -13 8 -12 85 -12 85 0 0 14 -11 17
-53 13z"/>
<path d="M7206 9193 c-8 -8 -104 -14 -281 -17 -104 -2 -197 -7 -206 -10 -10
-4 -20 -3 -24 3 -7 13 -75 15 -75 2 0 -5 7 -14 15 -21 12 -10 18 -10 30 0 8 6
23 9 36 5 38 -13 364 -6 569 11 41 4 107 7 145 8 39 0 73 5 76 9 4 5 15 4 26
-1 22 -12 113 -6 128 9 7 7 -62 9 -213 8 -122 -2 -224 -4 -226 -6z"/>
<path d="M9035 8989 c-9 -13 7 -16 63 -14 29 1 48 -2 41 -6 -7 -4 30 -7 82 -7
51 0 85 2 74 4 -138 27 -252 37 -260 23z"/>
<path d="M9295 8887 c11 -8 31 -18 45 -22 22 -7 23 -6 8 8 -8 9 -29 19 -44 23
-27 6 -28 5 -9 -9z"/>
<path d="M2683 8762 c-14 -9 -15 -82 -1 -82 8 0 12 22 9 47 -1 6 3 14 9 18 12
7 14 25 3 25 -5 0 -14 -4 -20 -8z"/>
<path d="M2670 8648 c1 -12 7 -40 15 -62 7 -21 11 -45 8 -52 -3 -8 2 -17 11
-20 9 -3 17 -18 17 -33 1 -17 3 -20 6 -8 2 9 -2 39 -11 65 -8 26 -17 65 -18
86 -4 43 -28 64 -28 24z"/>
<path d="M8710 8570 c0 -5 21 -10 48 -11 72 -2 116 -7 160 -19 23 -6 44 -10
49 -9 4 1 15 0 23 -4 19 -7 221 -27 278 -27 33 0 42 4 42 18 0 15 -11 17 -87
17 -75 0 -248 11 -248 15 0 1 -7 3 -15 5 -8 2 -33 9 -55 14 -52 14 -195 14
-195 1z"/>
<path d="M8440 8535 c0 -11 8 -29 17 -40 15 -19 15 -19 8 10 -8 37 -25 57 -25
30z"/>
<path d="M15280 8531 c0 -4 15 -15 33 -24 17 -9 59 -33 92 -52 33 -19 76 -42
95 -51 19 -9 42 -22 50 -29 34 -31 268 -155 386 -206 24 -10 44 -23 44 -30 0
-8 20 -9 73 -3 104 11 107 11 332 13 171 1 205 3 205 15 0 39 -412 53 -585 20
-24 -4 -39 -2 -49 9 -9 8 -34 18 -56 22 -22 4 -40 10 -40 15 0 4 -10 11 -22
15 -13 4 -25 9 -28 10 -3 1 -15 6 -27 10 -13 4 -23 12 -23 17 0 6 -7 8 -15 4
-9 -3 -15 0 -15 9 0 8 -13 21 -29 30 -17 8 -49 28 -73 43 -53 35 -104 56 -116
48 -5 -3 -12 3 -15 13 -3 12 -24 24 -61 36 -31 10 -56 21 -56 25 0 4 -22 17
-50 28 -27 12 -50 17 -50 13z"/>
<path d="M15085 8410 c-4 -6 5 -10 20 -10 14 0 53 -14 86 -31 43 -23 63 -29
71 -21 8 8 30 1 79 -24 38 -20 72 -40 75 -45 3 -5 15 -9 27 -9 12 0 47 -12 77
-27 30 -15 60 -27 66 -28 6 0 22 -8 37 -18 14 -9 31 -17 36 -17 5 0 11 -5 13
-12 3 -8 6 -9 11 -1 4 6 -9 18 -31 28 -20 10 -49 26 -63 36 -14 10 -45 25 -70
35 -24 10 -56 26 -71 36 -14 10 -40 21 -57 24 -17 4 -36 13 -42 20 -6 8 -15
11 -20 8 -5 -3 -26 7 -46 21 -40 27 -73 33 -73 13 0 -9 -2 -10 -8 -2 -7 11
-74 34 -99 34 -6 0 -15 -4 -18 -10z"/>
<path d="M14895 8399 c-154 -33 -347 -40 -444 -17 -8 1 -16 -4 -18 -13 -3 -13
11 -18 69 -27 40 -6 80 -11 88 -11 8 0 34 -1 57 -4 25 -2 47 0 52 7 6 6 31 13
57 14 25 1 53 7 60 13 7 6 18 8 24 4 14 -8 160 24 160 36 0 11 -50 10 -105 -2z"/>
<path d="M14370 8385 c7 -8 19 -15 26 -15 8 0 14 7 14 15 0 10 -10 15 -26 15
-22 0 -25 -2 -14 -15z"/>
<path d="M16614 8178 c-3 -5 1 -17 10 -26 9 -9 16 -11 16 -5 0 6 7 14 16 17 8
3 13 2 10 -3 -6 -9 60 -31 95 -31 13 0 55 -11 94 -24 38 -14 70 -24 71 -23 1
1 0 14 -3 29 -4 24 -12 28 -60 38 -30 7 -61 9 -69 6 -8 -3 -14 -1 -14 3 0 15
-32 23 -97 26 -36 2 -65 -1 -69 -7z"/>
<path d="M15784 8121 c4 -6 14 -11 22 -11 8 0 17 -7 20 -15 8 -19 34 -20 34
-1 0 18 -6 22 -49 31 -23 5 -31 4 -27 -4z"/>
<path d="M15911 8061 c-15 -10 -7 -31 13 -31 8 0 19 -7 26 -15 18 -22 48 -18
55 6 8 26 3 32 -30 32 -14 0 -28 3 -31 8 -7 11 -15 11 -33 0z"/>
<path d="M16508 8043 c-21 -5 -24 -22 -5 -24 78 -9 87 -8 87 10 0 13 -8 18
-32 18 -18 0 -41 -2 -50 -4z"/>
<path d="M16600 8036 c0 -11 10 -16 31 -16 38 0 35 24 -4 28 -19 2 -27 -1 -27
-12z"/>
<path d="M16675 8040 c-4 -6 -3 -14 0 -20 10 -16 33 -12 38 8 4 16 5 16 6 0 1
-19 3 -19 91 -25 76 -5 80 -5 80 -15 0 -4 7 -8 15 -8 8 0 22 -11 31 -25 19
-29 12 -75 -12 -75 -8 0 -28 -9 -44 -20 -72 -48 -88 -57 -135 -74 -27 -11 -56
-23 -63 -29 -33 -26 -286 -53 -454 -48 -42 1 -46 3 -41 22 4 16 2 20 -8 17 -8
-3 -14 -11 -15 -19 0 -8 -4 -21 -7 -29 -3 -8 -11 -34 -17 -58 -8 -31 -18 -46
-36 -52 -13 -5 -24 -14 -24 -19 0 -11 -74 -41 -106 -43 -15 -2 -20 -7 -16 -17
3 -9 1 -12 -6 -7 -7 4 -12 14 -12 22 0 8 -4 14 -10 14 -16 0 -11 -17 13 -44
l22 -26 65 32 c36 18 67 36 68 40 2 5 10 8 18 8 8 0 14 4 14 8 0 5 12 15 26
22 14 8 32 27 41 43 13 26 19 28 51 24 79 -10 379 21 421 43 9 5 45 20 80 33
35 14 71 31 80 38 9 8 34 20 56 28 51 18 127 84 156 135 35 61 35 76 0 76 -23
0 -30 -6 -36 -27 -7 -26 -8 -27 -15 -7 -13 32 -137 75 -232 79 -43 3 -80 0
-83 -5z"/>
<path d="M16300 8030 c0 -19 51 -23 68 -6 15 15 13 16 -26 16 -23 0 -42 -4
-42 -10z"/>
<path d="M14450 7951 c-8 -32 -22 -57 -37 -66 -19 -13 -21 -19 -13 -35 17 -31
13 -52 -7 -42 -25 13 -111 25 -123 17 -15 -9 7 -35 30 -35 10 0 38 -9 63 -20
39 -17 50 -19 67 -8 18 11 20 19 15 52 -4 28 -2 41 10 50 8 6 16 21 18 33 2
12 6 25 8 28 10 9 69 -17 69 -30 0 -8 12 -27 26 -45 20 -24 29 -28 40 -19 11
9 8 16 -17 36 -17 14 -28 31 -25 38 8 21 -10 36 -52 42 -32 4 -43 11 -49 30
-8 23 -10 21 -23 -26z"/>
<path d="M14811 7969 c-1 -14 -14 -61 -29 -105 l-29 -79 -74 -1 c-43 0 -77 4
-81 10 -5 7 -8 5 -8 -5 0 -37 24 -50 102 -55 99 -7 118 2 118 60 0 53 14 67
60 57 25 -5 36 -13 38 -27 2 -12 15 -33 30 -47 24 -23 29 -24 46 -12 21 16 14
35 -13 35 -26 0 -43 24 -39 56 3 27 0 29 -52 38 -47 9 -55 14 -52 31 2 12 -2
32 -7 45 l-10 25 0 -26z"/>
<path d="M15136 7836 c-9 -14 -16 -30 -16 -35 0 -5 -8 -12 -19 -16 -12 -4 -24
-24 -33 -58 -17 -59 -41 -73 -59 -34 -14 32 -49 43 -49 17 0 -20 66 -80 87
-80 16 0 53 58 53 81 0 9 18 29 40 44 22 15 40 32 40 36 0 24 70 4 70 -20 1
-20 29 -55 52 -63 9 -4 24 -1 34 7 17 12 16 15 -19 35 -31 19 -37 27 -37 56 0
19 -3 34 -7 35 -41 3 -88 9 -103 14 -11 4 -23 -3 -34 -19z"/>
<path d="M15790 7842 c0 -5 12 -14 26 -21 14 -6 24 -17 21 -24 -2 -7 -10 -39
-17 -72 -7 -33 -17 -66 -23 -73 -19 -24 -83 -51 -136 -58 -46 -6 -51 -5 -51
12 -1 15 -4 13 -16 -9 -22 -41 -5 -59 50 -51 22 4 45 10 50 15 6 5 16 9 23 9
25 0 103 42 103 56 0 8 9 19 20 26 11 7 20 20 20 29 0 12 11 18 38 21 20 3 38
5 39 4 1 -1 3 -19 5 -40 2 -28 9 -42 28 -54 14 -9 28 -20 31 -25 3 -4 12 0 20
9 12 14 9 20 -19 45 -19 17 -32 38 -32 52 0 26 -24 42 -77 52 -30 6 -32 9 -30
46 1 26 -4 43 -13 49 -19 12 -60 13 -60 2z"/>
<path d="M15493 7808 c-6 -7 -18 -28 -27 -46 -13 -25 -23 -32 -39 -30 -20 3
-22 -2 -23 -39 -1 -88 -53 -130 -56 -45 -1 44 -2 45 -5 9 -3 -29 -8 -37 -19
-33 -8 3 -14 0 -14 -8 0 -17 42 -56 61 -56 27 0 67 71 73 130 1 3 13 21 28 40
22 28 30 32 40 22 6 -6 22 -12 35 -12 15 0 28 -10 39 -32 27 -53 34 -59 56
-47 19 10 19 11 -6 34 -17 15 -26 35 -26 53 0 31 -18 42 -67 42 -12 0 -26 7
-31 16 -7 12 -10 13 -19 2z"/>
<path d="M6295 7493 c-3 -38 -10 -97 -15 -133 -11 -79 -10 -213 1 -232 5 -7 9
35 10 102 0 63 2 124 4 135 2 11 7 40 11 65 4 25 16 52 26 61 16 14 17 21 7
43 -21 46 -37 31 -44 -41z"/>
<path d="M6343 7463 c-8 -3 -9 -11 -4 -21 5 -9 16 -48 25 -85 19 -83 67 -219
74 -213 3 3 -1 25 -7 48 -6 24 -13 52 -15 63 -2 11 -11 38 -19 60 -23 62 -41
129 -38 143 1 6 1 12 -1 11 -2 0 -8 -3 -15 -6z"/>
<path d="M5108 7248 c-10 -12 -18 -28 -18 -34 0 -7 -3 -14 -8 -16 -15 -6 -81
-105 -75 -112 15 -15 35 -4 49 27 18 41 32 62 67 99 27 30 31 49 11 55 -5 1
-17 -7 -26 -19z"/>
<path d="M4940 7190 c0 -6 -11 -23 -25 -38 -14 -15 -25 -30 -25 -34 0 -5 -13
-36 -28 -70 -15 -35 -35 -83 -44 -108 -23 -65 -70 -179 -107 -260 -11 -25 -23
-64 -27 -88 -4 -23 -11 -45 -15 -48 -12 -7 -39 -70 -50 -114 -8 -35 3 -136 25
-215 5 -22 10 -46 9 -54 -1 -8 5 -21 13 -28 8 -8 12 -18 10 -22 -3 -4 -10 -34
-15 -67 -6 -32 -18 -84 -26 -114 -21 -72 -21 -132 0 -164 17 -26 55 -36 55
-15 0 6 7 9 15 5 9 -3 15 0 15 9 0 8 2 15 5 15 6 0 83 -78 137 -139 60 -68
105 -94 163 -95 l50 -1 0 -80 c0 -44 -4 -90 -8 -102 -10 -28 7 -30 68 -9 52
18 100 23 98 11 -1 -6 -5 -23 -8 -38 -6 -21 -4 -27 9 -27 9 0 16 -7 16 -15 0
-8 -7 -15 -15 -15 -9 0 -15 -9 -15 -25 0 -14 4 -25 9 -25 12 0 41 29 41 41 0
5 3 8 8 7 17 -3 61 23 80 49 11 15 22 26 25 23 3 -3 0 -34 -5 -69 -8 -51 -7
-65 4 -72 21 -14 38 -10 38 9 1 13 8 9 29 -15 15 -18 30 -33 34 -33 18 0 57
46 57 67 0 13 7 26 15 29 8 4 15 18 16 33 1 14 4 37 8 51 7 23 9 22 21 -20 15
-52 27 -68 55 -70 43 -5 56 0 53 18 -2 12 -13 17 -38 17 -33 0 -36 3 -43 40
-5 22 -13 48 -18 57 -5 10 -9 31 -9 48 0 16 -4 30 -9 30 -5 0 -14 21 -19 48
-45 206 -56 248 -65 257 -13 13 -3 -49 34 -212 18 -82 22 -134 10 -146 -6 -6
-11 -28 -11 -49 0 -21 -4 -38 -8 -38 -4 0 -14 -21 -22 -47 -12 -43 -14 -45
-23 -25 -6 12 -16 22 -24 22 -8 0 -12 4 -9 9 3 5 -1 11 -9 15 -12 4 -15 28
-15 122 0 88 -3 115 -12 112 -7 -3 -17 -32 -21 -66 -7 -46 -12 -59 -22 -55 -9
3 -20 -8 -31 -29 -9 -19 -24 -39 -34 -46 -16 -9 -19 -4 -30 49 -7 32 -15 59
-18 59 -3 0 -11 -8 -18 -17 -12 -16 -12 -16 -7 5 6 26 10 27 -74 -16 -53 -28
-53 -28 -48 6 2 15 7 57 10 93 4 55 2 69 -14 87 -22 26 -91 32 -91 8 0 -46
-67 -18 -143 60 -31 32 -57 62 -57 66 0 4 -20 28 -45 54 -28 28 -45 55 -45 70
0 18 -4 22 -17 17 -10 -3 -24 -13 -31 -22 -11 -13 -12 -9 -7 29 8 62 34 181
57 268 10 39 16 77 13 82 -3 6 -2 10 4 10 6 0 8 7 4 16 -3 9 0 20 7 24 9 6 10
13 2 26 -10 18 -11 18 -17 -1 -15 -44 -30 -75 -36 -75 -3 0 -16 40 -28 89
l-22 89 21 78 c12 43 25 83 30 89 4 5 24 57 44 114 20 58 40 109 45 115 4 6
13 31 20 56 8 25 26 73 42 106 16 34 29 64 29 67 0 2 8 22 17 43 20 47 19 44
28 72 4 12 11 22 15 22 4 0 10 7 14 15 3 9 0 15 -9 15 -8 0 -15 -5 -15 -10z"/>
<path d="M11130 7158 c0 -7 11 -35 25 -62 14 -27 25 -58 25 -68 0 -10 5 -18
11 -18 6 0 8 -9 4 -20 -4 -13 -2 -20 6 -20 7 0 9 -3 6 -7 -8 -7 11 -33 24 -33
13 0 1 42 -27 101 -13 27 -24 58 -24 69 0 23 -28 70 -41 70 -5 0 -9 -6 -9 -12z"/>
<path d="M7544 7117 c-3 -10 -4 -33 -2 -52 2 -19 0 -36 -4 -37 -11 -4 -18
-172 -8 -189 5 -8 4 -19 -2 -26 -7 -9 -7 -13 1 -13 6 0 11 -5 11 -11 0 -5 -5
-7 -12 -3 -8 5 -9 2 -5 -9 3 -10 2 -17 -3 -17 -6 0 -10 -9 -10 -20 0 -11 5
-20 11 -20 6 0 3 -7 -5 -16 -9 -8 -16 -20 -16 -25 0 -12 27 -12 34 0 17 28 40
348 25 357 -4 2 -3 20 3 40 6 25 6 40 -1 47 -7 7 -12 5 -17 -6z"/>
<path d="M6437 7093 c3 -16 15 -73 28 -128 21 -88 33 -166 40 -257 5 -64 6
-65 15 -43 4 12 2 58 -6 110 -8 50 -16 106 -19 125 -13 83 -47 220 -55 220 -4
0 -5 -12 -3 -27z"/>
<path d="M6975 7073 c-4 -20 -8 -109 -11 -196 -2 -88 -6 -162 -8 -165 -3 -2
-73 0 -156 6 -141 10 -211 5 -224 -16 -2 -4 42 -8 98 -9 56 -1 122 -7 146 -13
25 -7 61 -14 80 -17 19 -3 40 -9 45 -13 6 -5 18 -3 27 4 13 10 17 28 17 87 0
40 -5 79 -10 85 -6 8 -3 13 12 17 15 4 19 11 15 24 -14 44 -6 145 15 200 11
29 5 43 -20 43 -14 0 -21 -10 -26 -37z"/>
<path d="M7610 7027 c0 -56 4 -87 11 -87 11 0 8 155 -4 167 -4 3 -7 -33 -7
-80z"/>
<path d="M6287 7008 c7 -82 13 -87 13 -10 0 33 -4 63 -9 66 -5 4 -7 -20 -4
-56z"/>
<path d="M5784 7029 c4 -13 11 -39 16 -57 4 -19 11 -37 15 -40 4 -4 5 2 2 13
-3 11 -9 37 -13 58 -3 20 -11 40 -17 44 -7 4 -8 -2 -3 -18z"/>
<path d="M7026 6883 c2 -32 3 -83 4 -113 1 -39 4 -49 10 -35 4 11 5 54 3 95
-3 41 -5 83 -5 93 1 9 -3 17 -7 17 -4 0 -7 -26 -5 -57z"/>
<path d="M6293 6842 c6 -93 4 -96 -74 -108 -24 -4 -47 -12 -51 -17 -4 -7 -11
-7 -21 1 -11 9 -30 10 -71 4 -32 -5 -74 -6 -95 -2 -22 4 -47 3 -56 -2 -9 -6
-18 -8 -19 -6 -13 15 -56 109 -60 131 -4 15 -10 27 -14 27 -10 0 -3 -61 8 -75
5 -5 16 -36 25 -68 17 -58 17 -59 48 -53 37 7 224 18 280 16 20 0 47 5 60 12
12 7 33 13 47 13 24 0 25 2 24 61 0 34 -4 70 -9 80 -4 10 -10 28 -12 38 -9 51
-15 23 -10 -52z"/>
<path d="M11237 6914 c-3 -6 1 -23 9 -38 7 -16 14 -38 14 -50 1 -23 24 -59 32
-50 6 6 -13 76 -23 84 -3 3 -10 18 -16 35 -5 16 -12 24 -16 19z"/>
<path d="M7616 6874 c4 -24 3 -39 -6 -44 -8 -5 -7 -9 5 -13 14 -6 16 0 13 43
-2 28 -7 50 -11 50 -4 0 -5 -16 -1 -36z"/>
<path d="M11280 6752 c0 -4 5 -13 12 -20 7 -7 9 -12 5 -12 -4 0 3 -17 16 -37
13 -22 22 -50 21 -66 -2 -17 3 -30 12 -34 7 -3 11 -9 8 -14 -3 -6 1 -20 8 -32
8 -12 21 -43 29 -69 7 -27 17 -48 21 -48 4 0 8 -6 8 -13 0 -7 9 -29 20 -50 11
-20 18 -37 15 -37 -8 0 33 -78 45 -85 5 -3 10 -15 10 -26 0 -10 4 -27 9 -37
24 -47 50 -113 66 -167 10 -33 23 -67 30 -75 7 -8 25 -46 40 -85 34 -90 46
-115 57 -115 4 0 8 -11 8 -25 0 -14 9 -43 20 -65 11 -22 20 -46 20 -55 0 -8 4
-15 9 -15 4 0 14 -21 21 -47 7 -27 19 -59 25 -73 7 -14 17 -36 22 -50 41 -101
78 -186 85 -188 4 -2 8 -13 8 -25 0 -12 9 -33 20 -47 11 -14 20 -28 20 -32 0
-3 19 -48 43 -100 24 -51 49 -119 56 -150 7 -32 17 -60 22 -63 5 -4 9 -13 9
-22 0 -9 8 -25 17 -35 9 -10 17 -28 18 -41 3 -23 25 -84 37 -102 4 -5 23 -28
42 -50 57 -67 57 -103 1 -159 -14 -14 -25 -30 -25 -36 0 -5 -7 -10 -15 -10 -9
0 -31 -16 -49 -35 -19 -19 -37 -35 -41 -35 -3 0 -29 -17 -58 -37 -65 -47 -80
-56 -137 -85 -25 -13 -46 -26 -48 -30 -2 -5 -12 -8 -21 -8 -10 0 -26 -9 -36
-20 -10 -11 -26 -20 -35 -20 -9 0 -25 -7 -36 -15 -10 -8 -26 -15 -35 -15 -9 0
-24 -8 -33 -19 -9 -10 -29 -21 -44 -24 -15 -3 -44 -17 -65 -31 -21 -14 -42
-26 -47 -26 -9 0 -163 -74 -190 -91 -8 -5 -23 -12 -32 -15 -10 -4 -18 -10 -18
-15 0 -5 -7 -9 -15 -9 -8 0 -45 -16 -82 -35 -37 -19 -71 -35 -76 -35 -4 0 -29
-16 -55 -36 -26 -19 -59 -38 -74 -41 -16 -3 -28 -11 -28 -18 0 -6 -17 -17 -38
-23 -92 -28 -298 -150 -281 -167 9 -9 80 19 103 40 12 11 41 27 64 34 23 8 42
18 42 22 0 5 7 6 15 3 8 -4 15 -1 15 5 0 6 7 11 15 11 8 0 15 5 15 10 0 6 7
10 15 10 8 0 15 5 15 10 0 6 8 10 19 10 10 0 24 7 31 15 14 17 67 45 85 45 17
0 28 -77 16 -115 -5 -16 -22 -59 -38 -95 -16 -36 -33 -78 -38 -95 -10 -37 -9
-34 -24 -70 -24 -62 -30 -82 -47 -150 -9 -38 -20 -74 -24 -80 -4 -5 -14 -37
-21 -70 -7 -33 -16 -64 -19 -70 -4 -5 -11 -25 -15 -42 -3 -18 -11 -33 -16 -33
-5 0 -9 -8 -9 -17 0 -16 -15 -68 -31 -108 -47 -117 -82 -211 -110 -300 -10
-33 -25 -72 -33 -86 -14 -24 -49 -136 -66 -209 -4 -19 -13 -50 -20 -68 -7 -18
-9 -39 -6 -47 3 -9 0 -15 -8 -15 -16 0 -26 -21 -26 -55 0 -13 -4 -27 -10 -30
-5 -3 -10 -15 -10 -26 0 -17 -7 -19 -72 -19 -67 0 -274 30 -294 43 -5 3 -61
10 -124 16 -136 13 -247 30 -275 41 -27 11 -39 12 -165 14 -60 0 -110 4 -110
8 0 4 -16 6 -35 5 -19 -1 -35 -5 -35 -8 0 -3 -11 -4 -24 -2 -14 3 -41 -4 -63
-16 -21 -11 -76 -30 -123 -42 -121 -30 -140 -33 -140 -20 0 7 -4 10 -9 7 -10
-7 -7 -268 3 -285 16 -26 23 3 22 94 -1 53 2 99 6 101 5 3 34 7 66 9 61 3 165
36 191 59 27 24 72 38 86 26 9 -7 21 -7 39 0 33 12 243 13 250 1 3 -4 27 -11
53 -15 70 -8 116 -17 133 -23 8 -4 18 -6 21 -5 14 2 267 -30 304 -39 68 -16
247 -39 312 -39 49 0 61 3 57 14 -3 8 0 17 5 21 6 3 8 11 5 17 -12 19 -10 72
4 100 7 15 14 58 16 95 2 37 9 82 16 98 31 75 48 122 59 170 5 22 21 72 35
110 14 39 26 78 26 88 0 9 4 17 8 17 5 0 21 39 36 88 15 48 33 101 41 117 8
17 24 64 35 105 12 41 25 84 30 95 33 84 40 105 46 140 4 22 17 61 29 87 13
26 29 71 36 100 7 29 16 55 20 58 3 3 25 55 48 115 23 61 49 120 57 133 8 12
17 50 19 84 4 64 19 88 56 88 10 0 19 3 21 8 2 4 19 14 38 24 130 61 196 94
200 99 3 3 22 12 43 18 20 7 37 16 37 21 0 5 10 11 23 15 25 7 179 77 187 85
7 8 149 67 180 76 45 12 172 77 177 91 3 7 10 13 17 13 6 0 23 13 36 28 14 16
38 32 54 36 16 4 30 16 33 26 3 11 9 20 14 20 19 0 79 69 97 110 15 38 17 51
7 84 -12 41 -91 144 -111 145 -6 1 -17 16 -24 34 -6 17 -15 39 -20 47 -30 52
-59 119 -63 145 -7 38 -27 94 -43 120 -7 11 -22 44 -33 73 -12 29 -26 58 -31
65 -14 16 -100 187 -100 199 0 5 -13 37 -29 71 -17 34 -35 81 -41 105 -6 23
-15 42 -20 42 -5 0 -7 7 -4 15 4 8 2 15 -4 15 -6 0 -14 15 -17 33 -6 26 -40
101 -96 209 -5 10 -9 25 -9 33 0 9 -7 18 -15 21 -8 4 -15 15 -15 25 0 10 -20
61 -45 112 -25 52 -45 99 -45 105 0 6 -9 26 -20 45 -11 19 -27 58 -36 88 -9
30 -26 70 -37 89 -12 19 -21 39 -19 44 1 4 -15 45 -37 90 -22 44 -45 98 -51
119 -7 22 -16 35 -23 30 -6 -4 -8 -1 -5 8 3 9 -2 33 -13 55 -10 21 -18 49 -19
62 0 15 -6 22 -20 22 -11 0 -20 -4 -20 -8z"/>
<path d="M7120 6723 c-8 -3 -18 -11 -22 -17 -5 -8 -8 -7 -8 2 0 6 -5 12 -11
12 -6 0 -8 -9 -4 -20 4 -11 2 -20 -4 -20 -6 0 -11 -3 -11 -7 0 -5 66 -8 147
-8 109 0 147 -3 151 -13 3 -11 53 -42 68 -42 3 0 3 7 0 16 -5 13 -1 15 24 12
23 -4 31 0 36 15 7 23 -8 34 -56 42 -19 4 -45 10 -58 16 -49 20 -68 11 -63
-31 2 -9 -7 -5 -22 11 -22 23 -31 26 -76 21 -34 -3 -51 -1 -51 7 0 12 -15 13
-40 4z"/>
<path d="M5965 6661 c-41 -4 -76 -15 -109 -36 -75 -45 -96 -69 -96 -108 0 -19
-7 -40 -16 -48 -14 -12 -14 -14 2 -26 23 -17 34 -16 34 2 0 9 6 18 14 21 8 3
19 18 26 33 6 16 29 40 50 54 l38 25 -5 -75 c-5 -65 -3 -78 16 -103 11 -16 21
-34 21 -39 0 -20 35 -29 94 -24 59 4 87 14 162 56 39 23 40 25 38 71 -1 45
-30 116 -46 116 -5 0 -8 4 -8 9 0 12 68 -15 92 -36 9 -8 24 -30 33 -49 9 -19
20 -32 26 -29 5 4 -2 21 -16 39 -14 18 -25 42 -25 53 0 12 -12 28 -26 38 -14
9 -23 19 -20 23 4 3 -8 12 -26 19 -38 16 -165 23 -253 14z m112 -185 c-6 -17
-47 -20 -47 -3 0 9 6 17 13 20 18 6 38 -4 34 -17z"/>
<path d="M7110 6633 c-41 -21 -60 -39 -78 -73 -34 -65 -44 -80 -53 -80 -15 0
-10 -57 7 -71 14 -11 18 -10 30 6 17 23 23 18 27 -21 5 -44 12 -51 65 -58 26
-3 57 -13 69 -21 11 -8 23 -12 25 -9 3 2 17 0 31 -5 22 -9 28 -7 37 9 6 11 17
20 25 20 18 0 48 55 53 97 2 18 -5 48 -17 72 -12 22 -21 43 -21 46 0 15 36 0
82 -35 29 -22 56 -40 59 -40 8 0 20 -55 19 -89 0 -13 -8 -30 -18 -37 -16 -12
-15 -13 8 -22 17 -7 26 -6 29 2 2 6 9 14 15 18 6 4 11 31 11 60 0 29 4 59 8
66 10 15 -43 72 -67 72 -9 0 -16 5 -16 10 0 6 -12 16 -27 22 -16 7 -39 20 -52
30 -13 10 -32 18 -42 18 -9 0 -19 4 -21 10 -1 5 -37 12 -78 15 -59 4 -82 1
-110 -12z"/>
<path d="M7442 6598 c6 -17 36 -34 45 -24 4 4 -1 14 -11 22 -24 17 -39 18 -34
2z"/>
<path d="M7602 6581 c-12 -7 -10 -199 2 -220 3 -5 16 -7 28 -3 18 4 20 2 14
-14 -4 -10 -10 -62 -12 -114 -2 -52 -11 -142 -19 -200 -38 -272 -47 -313 -95
-417 -11 -24 -20 -45 -20 -49 0 -13 -94 -150 -113 -166 -12 -9 -19 -19 -16
-22 9 -9 59 18 64 35 3 8 18 29 33 45 15 16 36 49 47 74 10 25 25 52 32 61 7
8 13 22 13 30 0 8 11 43 23 79 13 36 24 79 25 97 0 17 5 40 11 50 5 10 11 48
12 83 1 36 6 79 11 95 16 52 36 138 43 188 8 63 29 109 54 125 12 7 21 16 21
21 0 7 -48 31 -93 45 -23 7 -38 48 -42 120 -5 65 -6 68 -23 57z"/>
<path d="M1870 6557 c0 -6 -20 -37 -45 -67 -25 -30 -45 -58 -45 -61 0 -3 -8
-15 -17 -27 -10 -11 -27 -33 -38 -48 -11 -16 -38 -51 -60 -79 -22 -27 -49 -63
-59 -80 -11 -16 -30 -41 -43 -55 -13 -14 -23 -29 -23 -34 0 -4 -12 -23 -27
-41 -16 -18 -39 -50 -53 -70 -14 -20 -30 -42 -36 -49 -6 -6 -18 -25 -27 -41
-8 -17 -25 -40 -36 -52 -12 -12 -21 -27 -21 -32 0 -5 -6 -16 -13 -23 -17 -18
-67 -96 -67 -105 0 -5 -12 -19 -25 -32 -14 -13 -25 -29 -25 -36 0 -7 -15 -31
-32 -53 -30 -36 -45 -58 -89 -131 -32 -55 -99 -157 -117 -181 -11 -14 -40 -58
-65 -98 -25 -41 -56 -86 -69 -101 -13 -15 -39 -49 -58 -76 -19 -28 -38 -51
-42 -53 -4 -2 -8 -8 -8 -14 0 -15 -89 -112 -111 -120 -11 -4 -19 -14 -19 -21
0 -8 -7 -21 -17 -28 -34 -29 -53 -91 -53 -180 0 -82 1 -88 31 -120 16 -19 41
-51 55 -72 56 -85 74 -95 94 -47 11 27 10 33 -16 66 -87 107 -84 101 -84 186
0 81 9 108 54 173 30 43 43 55 50 48 3 -4 6 -2 6 4 0 9 58 103 70 113 17 13
90 118 90 128 0 6 7 15 16 20 9 5 15 11 13 13 -1 2 18 36 43 74 46 72 121 196
173 288 17 29 40 67 53 84 12 17 22 35 22 40 0 6 18 35 40 67 22 31 40 59 40
61 0 5 62 97 70 105 3 3 28 38 55 79 73 109 77 114 114 167 19 27 47 64 63 82
15 18 28 39 28 48 0 8 7 17 15 20 8 3 33 34 56 67 23 34 48 66 56 70 7 4 13
15 13 22 0 8 3 15 8 15 4 0 18 17 32 38 14 20 28 39 31 42 3 3 18 24 32 47 14
23 31 44 37 48 15 9 12 25 -5 25 -8 0 -15 -6 -15 -13z"/>
<path d="M7915 6338 c7 -107 7 -108 16 -108 13 0 16 24 7 63 -4 20 -9 55 -10
78 -1 22 -5 42 -10 45 -4 3 -6 -32 -3 -78z"/>
<path d="M5783 6403 c-21 -8 -15 -22 7 -16 16 4 20 1 18 -18 -2 -16 3 -24 17
-27 11 -2 24 -10 30 -18 12 -16 82 -27 90 -14 3 5 -8 8 -24 8 -32 -1 -95 44
-104 75 -5 17 -12 19 -34 10z"/>
<path d="M7900 6210 c-21 -7 -22 -8 -4 -9 11 -1 25 -6 32 -13 14 -14 38 4 28
21 -8 12 -20 13 -56 1z"/>
<path d="M5432 6132 c-2 -52 5 -82 18 -82 6 0 7 15 5 33 -3 17 -6 44 -8 59 -5
45 -13 40 -15 -10z"/>
<path d="M5306 6079 l6 -77 -31 -18 c-32 -19 -42 -44 -17 -44 8 0 16 7 20 15
3 8 15 15 26 15 20 0 21 4 15 70 -3 39 -10 81 -15 93 -7 15 -8 -2 -4 -54z"/>
<path d="M8000 6140 c0 -24 20 -89 29 -94 11 -7 -7 86 -19 98 -7 7 -10 5 -10
-4z"/>
<path d="M6803 6063 c-7 -3 -13 -10 -13 -17 0 -7 -11 -25 -25 -40 -13 -14 -19
-26 -12 -26 15 0 77 55 77 69 0 13 -12 19 -27 14z"/>
<path d="M5444 6008 c46 -214 56 -245 49 -148 -2 41 -11 88 -19 104 -8 16 -14
37 -14 48 0 10 -5 18 -10 18 -6 0 -8 -10 -6 -22z"/>
<path d="M8041 5996 c-13 -15 1 -32 17 -22 5 3 14 -34 21 -82 7 -48 17 -103
21 -122 5 -19 12 -69 15 -110 4 -41 8 -76 10 -78 1 -2 14 0 29 4 24 6 25 9 19
48 -3 22 -10 43 -15 44 -4 2 -8 14 -8 27 0 13 -4 26 -9 29 -9 6 -46 198 -50
264 -1 16 -36 15 -50 -2z"/>
<path d="M5165 5937 c4 -13 7 -32 9 -42 2 -10 8 -21 14 -23 15 -5 15 1 0 49
-12 41 -32 55 -23 16z"/>
<path d="M5137 5834 c-11 -14 -17 -28 -14 -31 9 -8 27 7 27 23 0 8 10 19 23
24 20 8 20 9 2 9 -11 0 -28 -11 -38 -25z"/>
<path d="M4961 5708 c-1 -55 0 -58 24 -58 25 0 32 10 18 24 -5 4 -16 26 -25
49 l-17 42 0 -57z"/>
<path d="M6724 5643 c-12 -2 -30 -13 -40 -25 -19 -20 -19 -20 21 -17 51 3 103
-10 83 -22 -19 -12 14 -44 37 -35 15 5 15 8 -2 37 -16 27 -65 71 -75 68 -1 -1
-13 -4 -24 -6z"/>
<path d="M6484 5616 c-22 -13 -52 -26 -65 -29 -47 -11 -103 -35 -107 -46 -6
-17 34 -13 52 5 9 8 21 12 28 8 13 -8 41 -8 171 2 42 3 77 9 77 13 0 3 -36 6
-80 6 -50 0 -79 3 -77 10 2 6 39 10 85 10 83 0 115 10 66 20 -16 3 -45 10 -65
15 -45 12 -37 14 -85 -14z"/>
<path d="M6650 5565 c0 -18 45 -21 56 -3 5 8 2 9 -9 5 -9 -3 -19 -2 -22 3 -9
15 -25 12 -25 -5z"/>
<path d="M6540 5336 c-76 -18 -39 -34 40 -18 31 7 80 12 109 12 29 0 50 3 47
8 -8 13 -137 11 -196 -2z"/>
<path d="M760 4277 c0 -10 20 -50 29 -57 4 -3 14 -17 24 -32 11 -18 26 -28 41
-28 14 0 26 -5 28 -11 2 -6 26 -15 54 -19 27 -5 74 -19 104 -33 72 -33 177
-71 270 -97 41 -12 89 -28 105 -35 17 -7 55 -18 85 -25 30 -7 84 -27 120 -44
36 -18 84 -37 108 -44 23 -7 42 -18 42 -24 0 -6 3 -8 7 -5 3 4 13 1 22 -7 9
-8 36 -20 61 -26 25 -7 59 -19 75 -28 47 -24 303 -97 312 -88 3 3 2 13 -1 23
-6 15 -8 15 -16 3 -8 -13 -11 -13 -22 1 -7 9 -38 22 -68 29 -30 7 -73 21 -95
30 -22 10 -67 25 -100 35 -33 9 -67 23 -75 30 -8 7 -26 16 -40 20 -14 4 -45
17 -70 27 -25 11 -63 28 -85 38 -53 23 -133 51 -167 57 -16 3 -28 9 -28 13 0
4 -16 11 -35 14 -19 4 -47 13 -62 21 -15 8 -35 15 -43 15 -8 0 -33 9 -55 20
-22 11 -49 20 -60 20 -11 0 -31 9 -45 20 -14 11 -33 20 -42 20 -10 0 -18 5
-18 10 0 6 -7 10 -17 10 -9 0 -30 10 -47 23 -45 33 -83 50 -94 43 -14 -9 -74
24 -79 44 -8 30 -123 65 -123 37z"/>
<path d="M2095 3652 c-7 -8 -6 -168 1 -175 4 -3 8 -26 9 -49 6 -93 15 -174 21
-198 4 -14 9 -41 11 -60 6 -62 5 -472 -2 -534 -4 -34 -8 -76 -11 -95 -25 -220
-35 -395 -37 -631 l-2 -185 45 3 c24 2 47 6 50 10 13 18 98 61 134 68 12 2 44
8 71 14 99 19 322 50 390 54 39 2 71 5 73 6 1 2 14 4 30 5 113 11 169 17 182
22 8 3 24 7 35 8 11 1 40 6 65 9 25 4 110 11 190 15 109 6 155 12 180 25 30
15 128 35 195 39 47 2 211 -15 219 -23 38 -38 18 -326 -34 -515 -14 -49 -41
-237 -35 -243 2 -3 0 -11 -6 -18 -6 -8 -9 -20 -6 -28 3 -7 1 -18 -3 -22 -5 -5
-12 -27 -16 -48 -3 -22 -12 -45 -19 -53 -13 -13 -45 -108 -49 -148 -1 -12 -5
-25 -8 -30 -9 -16 -2 -136 8 -143 6 -4 20 -22 33 -39 12 -18 28 -33 34 -33 22
0 101 -71 114 -101 17 -42 54 -40 71 3 12 32 12 34 -34 76 -26 24 -61 49 -78
56 -17 8 -46 28 -64 45 -32 29 -33 33 -31 103 1 40 5 78 8 83 12 16 35 99 32
113 -1 8 5 19 14 25 8 7 18 30 21 52 3 22 8 47 11 55 8 19 7 18 28 125 10 50
30 142 45 205 32 131 50 247 50 325 0 63 15 66 43 7 10 -20 27 -48 37 -62 17
-21 21 -23 30 -10 16 25 11 51 -17 88 -15 20 -38 59 -53 87 -35 68 -57 88
-118 108 -82 27 -348 19 -419 -13 -13 -6 -33 -14 -45 -19 -13 -5 -88 -12 -168
-15 -80 -3 -160 -10 -179 -16 -19 -5 -55 -12 -80 -15 -49 -6 -86 -12 -86 -15
0 -1 -26 -3 -59 -5 -94 -6 -228 -16 -266 -21 -19 -3 -45 -6 -57 -7 -12 -2 -25
-6 -29 -10 -4 -4 -23 -7 -42 -7 -19 0 -51 -4 -71 -9 -20 -5 -74 -15 -120 -21
-81 -11 -133 -33 -174 -75 -16 -15 -17 -7 -18 122 -1 305 3 418 21 583 6 47
13 110 16 140 3 30 9 85 13 122 4 37 6 118 5 180 -2 123 -6 176 -34 448 -4 47
-6 124 -4 171 l5 87 -31 4 c-16 3 -32 2 -35 0z"/>
<path d="M10516 3638 c-5 -17 -29 -132 -28 -135 0 -2 -3 -16 -8 -31 -8 -31 2
-63 14 -43 4 6 1 11 -6 11 -10 0 -10 2 -1 8 12 8 26 67 36 160 5 40 1 57 -7
30z"/>
<path d="M8924 3323 c2 -60 6 -115 9 -123 6 -16 14 -97 21 -220 14 -211 26
-287 26 -162 0 44 4 62 13 62 8 0 20 28 30 71 14 58 15 75 5 88 -12 14 -11 14
5 2 15 -12 17 -11 17 12 0 14 5 29 12 33 8 5 6 10 -8 15 -15 6 -16 8 -3 8 9 1
20 12 23 25 3 13 9 31 12 40 4 12 0 16 -15 16 -18 0 -20 -4 -15 -25 4 -15 2
-25 -5 -25 -6 0 -11 -6 -11 -13 0 -6 -11 -33 -25 -59 -14 -26 -25 -55 -25 -65
0 -10 -3 -13 -9 -7 -5 5 -11 50 -14 99 -17 284 -22 335 -38 335 -4 0 -6 -48
-5 -107z"/>
<path d="M9100 3365 c-6 -19 -9 -39 -5 -45 3 -5 2 -10 -2 -10 -13 0 -30 -74
-23 -96 5 -13 9 -3 12 30 3 27 11 52 17 55 6 4 13 21 15 37 3 16 7 37 11 47 4
9 3 17 -3 17 -6 0 -16 -16 -22 -35z"/>
<path d="M10454 3328 c-11 -97 -10 -91 -17 -108 -3 -8 -8 -37 -11 -65 -3 -27
-10 -66 -15 -86 -6 -20 -11 -47 -11 -60 0 -13 -4 -64 -10 -114 -5 -49 -11
-117 -15 -150 -3 -33 -8 -87 -12 -120 -3 -33 -6 -77 -6 -97 -1 -21 -4 -38 -7
-38 -3 0 -5 -42 -4 -92 1 -51 -1 -97 -5 -103 -3 -5 -6 -26 -6 -45 -2 -118 -12
-153 -37 -133 -13 11 -39 16 -68 14 -10 -1 -16 -13 -17 -35 -3 -32 0 -35 44
-50 63 -22 74 -20 103 17 l25 31 1 296 c1 162 4 318 8 345 7 48 16 144 17 175
1 8 5 31 10 50 8 35 17 101 24 175 2 22 11 83 20 135 9 52 17 101 18 109 1 8
-3 16 -9 18 -8 3 -15 -21 -20 -69z"/>
<path d="M8089 2872 c-14 -15 -49 -49 -77 -75 -51 -48 -63 -67 -41 -67 12 0
79 71 74 79 -3 6 28 38 32 33 5 -4 63 41 63 50 0 17 -26 7 -51 -20z"/>
<path d="M7917 2699 c-14 -18 -24 -36 -21 -38 8 -9 57 46 52 60 -2 7 -14 -1
-31 -22z"/>
<path d="M8974 2689 c3 -17 6 -66 6 -107 0 -43 4 -72 9 -66 11 13 1 204 -11
204 -6 0 -8 -13 -4 -31z"/>
<path d="M7838 2625 c-6 -14 -16 -25 -23 -25 -15 0 -57 -44 -50 -53 3 -4 2 -5
-1 -2 -4 2 -15 0 -26 -6 -20 -11 -16 -29 6 -29 14 0 146 120 146 133 0 19 -42
5 -52 -18z"/>
<path d="M8407 2513 c-4 -3 1 -12 11 -20 16 -14 16 -14 -2 -9 -13 4 -24 -1
-35 -16 -26 -36 -32 -58 -16 -58 16 0 45 27 45 42 0 6 7 16 17 23 9 7 14 19
10 29 -7 17 -19 21 -30 9z"/>
<path d="M8264 2297 c-28 -30 -84 -104 -84 -111 0 -15 19 -4 25 14 3 11 14 20
22 20 9 0 14 3 10 6 -3 3 5 18 19 33 30 31 48 61 37 60 -4 0 -17 -10 -29 -22z"/>
<path d="M9013 1602 c-7 -5 -11 -45 -11 -119 0 -61 -4 -118 -8 -125 -5 -7 -7
-56 -6 -108 l3 -95 -87 -75 c-47 -41 -94 -79 -103 -84 -9 -6 -27 -22 -41 -38
-13 -15 -28 -28 -33 -28 -17 0 -118 -108 -122 -131 -3 -13 -9 -25 -15 -27 -5
-2 -10 -12 -10 -22 0 -18 -8 -29 -50 -63 l-21 -18 25 -20 c51 -40 103 6 112
99 4 34 9 60 12 58 2 -3 18 13 33 34 36 50 51 43 93 -41 27 -54 135 -179 155
-179 13 0 24 34 11 38 -15 5 -96 113 -105 141 -4 13 -20 36 -35 51 -35 35 -42
69 -16 84 11 6 30 20 42 31 12 11 46 38 74 60 29 22 73 60 98 84 l45 43 -8
222 c-3 121 -10 224 -13 228 -4 4 -12 4 -19 0z"/>
<path d="M4506 992 c1 -42 11 -54 35 -42 16 9 17 15 9 31 -6 11 -15 17 -21 14
-5 -4 -9 1 -9 9 0 9 -3 16 -7 16 -5 0 -8 -13 -7 -28z"/>
<path d="M10353 738 c-25 -27 -57 -92 -67 -132 -5 -22 -2 -33 13 -47 26 -25
37 -24 73 6 40 34 104 50 143 37 17 -6 47 -14 68 -18 20 -3 40 -10 43 -15 11
-18 24 -8 24 19 0 24 -7 30 -62 52 -82 32 -152 33 -197 1 -40 -29 -51 -20 -23
19 34 45 45 82 30 92 -19 11 -22 10 -45 -14z"/>
<path d="M9390 733 c-68 -25 -143 -69 -153 -90 -15 -33 10 -73 55 -89 48 -16
179 -17 226 -1 27 10 45 11 57 4 30 -16 139 -2 187 24 34 19 43 30 44 52 1 15
-4 31 -9 34 -13 8 23 22 41 16 8 -4 12 -28 12 -74 0 -66 1 -70 26 -79 27 -11
48 -5 39 10 -3 5 -7 38 -9 73 -5 71 2 80 54 67 21 -5 23 -8 9 -16 -29 -17 -31
-58 -5 -88 22 -27 25 -27 112 -23 122 7 156 15 176 42 15 20 16 27 5 48 -17
33 -67 74 -99 82 -15 4 -51 0 -81 -9 -68 -20 -69 -20 -65 2 3 16 -8 17 -132
15 -74 -1 -151 -7 -170 -12 -166 -46 -200 -64 -200 -108 l0 -26 -96 5 c-100 6
-126 16 -105 42 16 20 115 50 166 50 36 1 40 4 40 26 0 23 -4 25 -55 27 -30 1
-62 -1 -70 -4z m771 -79 c37 -15 39 -18 24 -33 -19 -20 -166 -23 -172 -4 -5
13 28 33 72 44 17 4 31 7 32 8 2 1 21 -6 44 -15z m-422 -7 c24 -30 -109 -63
-149 -37 -18 11 -14 15 30 34 44 19 104 20 119 3z"/>
<path d="M8980 585 c-15 -18 -6 -45 13 -45 20 0 40 27 33 45 -7 19 -30 19 -46
0z"/>
</g>
</svg>
